<?xml version="1.0" standalone="no"?>
<!DOCTYPE svg PUBLIC "-//W3C//DTD SVG 1.1//EN" "http://www.w3.org/Graphics/SVG/1.1/DTD/svg11.dtd" >
<svg xmlns="http://www.w3.org/2000/svg">
<metadata>Generated by IcoMoon</metadata>
<defs>
<font id="icomoon" horiz-adv-x="1024">
<font-face units-per-em="1024" ascent="960" descent="-64" />
<missing-glyph horiz-adv-x="1024" />
<glyph unicode="&#x20;" d="" horiz-adv-x="512" />
<glyph unicode="&#xe600;" d="M1024-60.384l-1024-3.616 181.568 496.544 77.792-75.872 291.936 603.328 133.344-392.448 103.488 98.528 235.872-726.464zM44.672-32.992l936.448 3.328-207.456 639.008-102.976-98.016-124.48 366.368-277.536-573.568-74.24 72.416-149.76-409.536zM703.488 18.176c-3.584-0.064-7.104 1.76-9.056 5.024l-268.608 447.456c-2.912 4.896-1.28 11.2 3.712 14.080 4.96 2.88 11.36 1.248 14.304-3.648l268.64-447.456c2.912-4.864 1.248-11.168-3.712-14.048l-5.28-1.408zM436.544 9.376l-5.376 1.472c-4.96 2.88-6.624 9.184-3.648 14.048l265.344 439.552c2.976 4.896 9.376 6.496 14.336 3.616 4.928-2.912 6.592-9.216 3.616-14.080l-265.344-439.52c-1.92-3.264-5.408-5.056-8.928-5.088zM834.208 230.080l-535.968-1.856c-5.792-0.064-10.496 4.576-10.496 10.24s4.64 10.272 10.432 10.272l536 1.92c5.76 0.032 10.464-4.608 10.464-10.24 0-5.664-4.672-10.336-10.432-10.336zM480.192 401.152l-90.944-0.32c-5.76-0.032-10.464 4.576-10.496 10.272 0 5.632 4.64 10.272 10.432 10.304l77.632 0.256 27.52 58.784c2.4 5.152 8.608 7.424 13.856 5.024 5.248-2.368 7.52-8.48 5.152-13.632l-33.152-70.688zM657.856 385.376l-35.488 87.392c-2.144 5.28 0.48 11.264 5.856 13.344 5.344 2.080 11.424-0.448 13.6-5.728l29.024-71.52 68.992 13.568c5.664 1.152 11.168-2.496 12.32-8.064 1.12-5.568-2.56-10.976-8.192-12.064l-86.112-16.928zM798.592 169.28c-2.848 0-5.728 1.12-7.808 3.328l-61.728 66.72 60.544 81.376c3.424 4.576 9.984 5.568 14.656 2.208 4.672-3.328 5.664-9.792 2.208-14.336l-50.432-67.84 50.24-54.272c3.904-4.192 3.584-10.688-0.672-14.528-1.984-1.76-4.544-2.656-7.008-2.656zM633.76 17.92l-3.52 0.608c-5.44 1.92-8.32 7.744-6.368 13.088l28.96 80.8 91.712-12.96c5.728-0.8 9.696-6.016 8.864-11.616s-6.112-9.504-11.84-8.672l-74.72 10.56-23.296-64.896c-1.504-4.256-5.504-6.88-9.792-6.912zM512.224 9.664c-3.808 0-7.488 2.016-9.376 5.632l-31.648 60.992-79.68-8.256c-5.92-0.672-10.88 3.488-11.488 9.12-0.608 5.664 3.552 10.72 9.312 11.328l93.984 9.728 38.176-73.568c2.592-5.056 0.576-11.296-4.576-13.856l-4.704-1.12zM338.304 167.648c-2.368-0.032-4.736 0.768-6.688 2.368-4.448 3.616-5.056 10.080-1.344 14.464l46.496 54.88-47.584 67.84c-3.264 4.672-2.048 11.072 2.688 14.304 4.768 3.232 11.296 1.984 14.528-2.656l56.608-80.64-56.672-66.88c-2.080-2.4-5.024-3.648-8.032-3.68zM639.207 246.844c0.151-37.856-29.397-68.663-65.998-68.809s-66.395 30.423-66.546 68.279c-0.151 37.856 29.397 68.663 65.998 68.809s66.395-30.423 66.546-68.279z" />
<glyph unicode="&#xe601;" d="M0-64l613.376 1024 614.88-1023.072-1228.256-0.928z" horiz-adv-x="1228" />
<glyph unicode="&#xe602;" d="M1226.112 955.52l-616.8-1019.52-609.312 1024 1226.112-4.48z" horiz-adv-x="1226" />
<glyph unicode="&#xe603;" d="M616.736 413.088c24.928 27.392 44.928 58.592 59.392 92.768 16.992 40.256 25.728 83.072 25.728 127.2s-8.704 86.944-25.728 127.296c-16.48 38.88-40.064 73.856-70.016 103.872-30.016 30.016-64.928 53.6-103.84 70.080-40.384 17.056-83.168 25.696-127.296 25.696s-86.976-8.64-127.296-25.696c-38.912-16.48-73.92-40.032-103.936-70.080-29.952-30.016-53.536-65.056-69.952-103.936-17.088-40.288-25.728-83.104-25.728-127.264 0-44.128 8.64-86.944 25.728-127.232 14.784-35.008 35.264-66.656 60.992-94.528l-134.784-368.992 183.68 51.424 107.296-157.728 85.056 232.896 85.12-232.896 107.296 157.728 183.68-51.424-135.392 370.816zM374.976 323.264c-171.168 0-309.792 138.688-309.792 309.792s138.656 309.856 309.792 309.856c171.104 0 309.76-138.72 309.76-309.856 0.096-171.104-138.656-309.792-309.76-309.792zM374.976 921.024c-159.104 0-288-128.896-288-287.936 0-159.072 128.896-288 288-288s287.968 128.896 287.968 288c0 159.040-128.864 287.936-287.968 287.936zM315.264 463.488l-62.752 45.6-62.752-45.6 23.936 73.824-62.688 45.6h77.568l23.968 73.76 24-73.76h77.6l-62.784-45.6 23.904-73.824zM313.312 685.664l23.968 73.792-62.784 45.6h77.6l23.968 73.792 24-73.792h77.6l-62.752-45.6 23.968-73.792-62.784 45.568-62.784-45.568zM562.4 463.488l-62.72 45.6-62.848-45.6 24 73.824-62.752 45.6h77.632l23.968 73.76 23.968-73.76h77.568l-62.752-45.6 23.936-73.824z" horiz-adv-x="752" />
<glyph unicode="&#xe604;" d="M1874.153 22.967l-87.055-86.967-850.065 849.977-849.977-849.977-87.055 86.967 937.033 937.033z" horiz-adv-x="1874" />
<glyph unicode="&#xe605;" d="M847.328 384.128l176.672 68-177.76 65.184 137.216 130.464-189.152-7.84 76.832 173.056-171.776-79.616 4.768 189.28-128.224-139.296-68.032 176.64-65.184-177.76-130.464 137.184 7.84-189.152-173.056 76.832 79.616-171.776-189.248 4.768 139.328-128.224-176.704-68 177.76-65.184-137.216-130.464 189.184 7.872-76.864-173.024 171.776 79.584-4.768-189.216 128.224 139.296 68.032-176.736 65.184 177.792 130.464-137.216-7.84 189.184 173.056-76.8-79.616 171.744 189.28-4.736-139.328 128.16zM455.904 153.6c-162.56 30.976-269.248 187.904-238.304 350.496 30.944 162.56 187.904 269.28 350.496 238.304 162.528-30.976 269.248-187.904 238.272-350.464-30.944-162.592-187.872-269.28-350.464-238.336zM790.016 448c0-153.544-124.472-278.016-278.016-278.016s-278.016 124.472-278.016 278.016c0 153.544 124.472 278.016 278.016 278.016s278.016-124.472 278.016-278.016z" />
<glyph unicode="&#xe606;" d="M928.288 675.104l-47.936 201.088c-65.088-19.552-161.312-14.816-246.208 27.104l47.904-201.12c84.832-42.016 181.056-46.72 246.24-27.072zM1024 272.8l-47.84 201.216c-65.184-19.712-161.344-14.816-246.272 27.008l47.936-201.12c-78.4 35.904-165.472 56.64-253.376 56.64l-47.776 201.184c-87.968 0-165.152-20.736-226.4-56.704l-47.872 201.152c61.312 35.968 138.4 56.672 226.336 56.672l-47.904 201.152c-87.872 0-164.992-20.704-226.368-56.704l10.176-42.752c-10.496-4.96-20.832-10.144-30.624-15.904l149.312-629.568c61.312 36.032 138.464 56.8 226.304 56.8 87.872 0 174.88-20.768 253.344-56.8 84.896-41.856 154.432-52.928 219.552-33.312l-17.92 77.696c11.392 1.728 49.28 10.304 59.392 13.344zM729.856 501.056l-47.808 201.152c-78.464 35.968-165.408 56.672-253.312 56.672l47.904-201.12c87.84 0 174.848-20.768 253.216-56.704zM20.512 903.808l13.984-58.624h-34.496l219.392-909.184h103.424l-233.28 967.808h-69.024z" />
<glyph unicode="&#xe607;" d="M1099.392 960h-1099.392v-673.216h770.944l328.448 673.216zM92.992 377.44v491.936h857.696l-240-491.936h-617.696zM1163.712 958.688l-370.336-719.776h-791.648v-93.184h848.544l370.272 719.776h222.688v93.184zM281.984 13.696c0-42.893-34.771-77.664-77.664-77.664s-77.664 34.771-77.664 77.664c0 42.893 34.771 77.664 77.664 77.664s77.664-34.771 77.664-77.664zM748.032 13.696c0-42.893-34.771-77.664-77.664-77.664s-77.664 34.771-77.664 77.664c0 42.893 34.771 77.664 77.664 77.664s77.664-34.771 77.664-77.664z" horiz-adv-x="1443" />
<glyph unicode="&#xe608;" d="M1022.464 25.728l-289.12 300.928c45.696 65.312 72.672 144.672 72.672 230.464 0 222.624-180.544 402.88-402.848 402.88-222.624 0-403.168-180.256-403.168-402.88 0-222.656 180.544-402.848 403.168-402.848 93.216 0 178.816 31.968 247.136 85.184l285.376-297.088c9.44-9.888 27.264-8.064 39.744 3.968l41.504 39.808c12.512 12 14.976 29.728 5.536 39.584zM403.168 274.528c-156.032 0-282.624 126.56-282.624 282.624s126.56 282.624 282.624 282.624c156.064 0 282.592-126.56 282.592-282.624s-126.528-282.624-282.592-282.624z" horiz-adv-x="1028" />
<glyph unicode="&#xe609;" d="M36.64 240.64l-0.64-41.152 482.496 469.12 468.704-482.176 0.8 40.608-468.928 482.528z" />
<glyph unicode="&#xe60a;" d="M294.624 923.776h-41.056l475.808-475.776-475.424-475.488 40.672-0.256 475.744 475.744z" />
<glyph unicode="&#xe60b;" d="M739.52-28.096l41.056 1.76-496.128 454.656 454.368 495.744-40.608-1.568-454.752-495.968z" />
<glyph unicode="&#xe60c;" d="M987.776 666.144l-0.16 41.088-474.112-477.504-477.12 473.824-0.128-40.64 477.44-474.176z" />
<glyph unicode="&#xe60d;" d="M948.693 768.089c-210.509 122.951-482.203 54.107-606.641-153.971-33.816-56.357-55.726-114.609-65.421-172.322h72.813l2.752-72.636-81.199-0.63 1.442-27.052h88.145l27.774-71.148-102.301 0.27 9.017-27.64h108.931l40.397-75.025-104.194-0.27 42.337-57.937 319.576-0.27c0 0-237.516 18.486-259.339 271.151 1.309 297.708 293.422 290.493 293.422 290.493s271.601-1.758 278.906-279.491c0 0 8.477-239.183-257.128-282.153l328.997-0.36c124.574 208.165 72.363 535.946-138.28 658.985zM727.315 652.983c-148.109 0-268.132-118.58-268.132-264.884 0-146.261 120.019-264.884 268.132-264.884 148.019 0 268.087 118.624 268.087 264.884 0.043 146.307-120.065 264.884-268.087 264.884zM923.622 269.475c-6.041-10.462-12.984-20.698-21.010-30.388-36.701-44.815-87.513-71.959-141.077-80.030l-12.578 164.568-40.261 2.21-30.435-164.070c-32.959 7.21-65.014 22.004-93.059 44.455-28.134 22.635-49.37 50.363-63.349 80.84l156.091 63.211-10.415 38.55-165.558-21.912c-3.066 53.472 13.21 108.027 49.999 153.025 8.026 9.741 16.591 18.53 25.79 26.558l103.923-121.192 33.903 21.73-68.531 140.895c60.822 22.724 130.166 19.027 189.184-13.075l-81.156-129.849 31.245-25.115 111.77 105.276c44.141-50.319 62.13-116.546 52.165-180.12l-153.745 36.97-14.385-37.154 141.481-75.384zM418.47 180.341h-405.69v47.744h378.862zM368.878 282.595h-309.157v45.854h289.818zM341.51 383.138h-310.24v46.078h307.491zM1056.537 179.21h229.085v47.657c1.171 9.785 14.831 15.598 57.173-8.026 44.679-24.843 110.193-59.109 110.193-59.109s29.306-15.332 0-27.279h-396.446v46.755zM1057.35 109.551h228.994v-47.565c1.353-9.693 14.97-15.598 57.306 8.117 44.634 24.843 110.236 59.109 110.236 59.109s29.172 15.238 0 27.233h-396.537v-46.89z" horiz-adv-x="1470" />
<glyph unicode="&#xe60e;" d="M512.032 960c-282.784 0-512.032-229.248-512.032-512 0-282.784 229.248-512 512.032-512 282.752 0 512 229.216 512 512 0 282.752-229.248 512-512 512zM544.352 172.672h-96v96h96v-96zM587.072 503.808c-22.464-30.464-42.72-63.776-42.72-128.288v-42.816h-64v64.608c0 49.984 13.856 90.56 32.672 125.344s35.2 64.512 35.2 91.328c0 17.376-13.6 32.64-31.712 32.64-30.432 0-45.568-29.728-52.064-55.104l-69.856 26.080c22.464 63.776 62.144 95.648 131.008 95.648 54.368 0 105.344-41.312 105.344-97.088 0-53.664-21.408-81.216-43.872-112.352z" />
<glyph unicode="&#xe60f;" d="M325.568 960c-179.872 0-325.568-145.696-325.568-325.28 0-179.904 325.568-698.72 325.568-698.72s325.568 518.816 325.568 698.72c0 179.584-145.664 325.28-325.568 325.28zM325.568 566.304c-63.936 0-115.936 51.744-115.936 115.68s52 115.936 115.936 115.936 115.936-52 115.936-115.936-52-115.68-115.936-115.68z" horiz-adv-x="651" />
<glyph unicode="&#xe610;" d="M621.152 414.208v545.792h-285.856v-545.792h-335.296l478.208-478.208 478.24 478.208z" horiz-adv-x="956" />
<glyph unicode="&#xe611;" d="M3286.948 174.213l-67.4-234.957h-44.657l52.644 183.552h-0.829l-98.959-183.552h-24.791l6.349 183.552h-0.84l-52.644-183.552h-44.636l67.389 234.957h67.41l-3.021-137.329h0.829l75.766 137.329h67.389zM3317.719 117.279c9.513 33.178 42.076 60.18 95.785 60.18 53.76 0 70.84-27.003 61.286-60.18l-34.714-121.078c-9.513-33.198-42.056-60.201-95.805-60.201-53.76 0-70.81 27.003-61.286 60.201l34.734 121.078zM3334.523-2.806c-5.028-17.592-0.85-26.051 19.845-26.051 20.664 0 29.716 8.458 34.765 26.051l34.171 119.091c5.038 17.572 0.829 26.030-19.845 26.030-20.695 0-29.716-8.458-34.765-26.030l-34.171-119.091zM3524.587-60.754h-51.251l67.4 234.957h71.905c57.467 0 81.316-19.19 66.949-69.335-10.844-37.745-33.833-53.033-52.951-59.208l12.882-106.424h-52.091l-8.468 97.3c-6.82-0.655-17.644-0.993-26.747-0.993l-27.628-96.297zM3561.748 68.772h18.196c27.699 0 40.366 8.151 48.404 36.116 8.018 27.996 0.031 36.127-27.668 36.127h-18.196l-20.736-72.243zM3680.020-60.754l67.4 234.957h137.247l-10.056-35.154h-85.975l-17.408-60.529h66.161l-10.066-35.154h-66.161l-19.794-68.997h91.781l-10.066-35.154-143.053 0.031zM4007.014 174.213h76.042c52.92 0 74.506-22.794 60.692-70.943l-26.696-93.082c-13.834-48.169-48.476-70.943-101.386-70.943h-76.042l67.389 234.967zM4000.369-27.546h17.777c27.3 0 39.148 8.141 46.264 32.881l29.471 102.83c7.127 24.719-0.072 32.84-27.361 32.84h-17.777l-48.374-168.55zM4189.297-60.754h-51.282l67.4 234.957h71.936c57.467 0 81.316-19.19 66.949-69.335-10.844-37.745-33.843-53.033-52.951-59.208l12.831-106.424h-52.081l-8.428 97.3c-6.851-0.655-17.684-0.993-26.747-0.993l-27.628-96.297zM4226.458 68.772h18.156c27.709 0 40.376 8.151 48.415 36.116 8.038 27.996 0.031 36.127-27.679 36.127h-18.166l-20.726-72.243zM4343.47-60.754l67.4 234.957h51.251l-67.389-234.957h-51.261zM4615.076 174.213h50.463l-129.833-234.957h-51.251l4.956 234.957h50.422l-9.544-163.052h0.829l83.958 163.052zM4626.637-60.754l67.389 234.957h137.257l-10.066-35.154h-85.996l-17.398-60.529h66.15l-10.066-35.154h-66.15l-19.794-68.997h91.791l-10.097-35.154-143.012 0.031zM4810.189-60.754l67.4 234.957h47.534l23.88-134.4h0.829l38.543 134.4h46.295l-67.4-234.957h-44.646l-23.235 146.78h-0.809l-42.107-146.78h-46.285zM447.222 721.224c9.042-5.161 9.042-13.548 5.161-19.364l-30.331-45.824c-3.871-5.806-8.407-8.387-18.708-1.925-21.309 12.902-49.705 22.579-79.391 22.579-36.127 0-69.693-10.322-76.8-36.137l-57.436-243.937c-5.806-23.89 12.257-35.502 37.437-35.502h15.493c6.441 0 10.322 3.205 11.612 9.667l32.922 140.052c1.29 6.451 8.376 12.902 16.128 12.902h177.48c6.451 0 10.967-6.451 9.677-12.902l-49.050-207.8c-1.3-6.451-9.687-12.913-16.148-12.913h-252.314c-121.969 0-172.954 94.208-172.954 184.566 0 188.457 144.568 279.45 315.576 279.45 49.695 0.010 93.583-10.967 131.645-32.911zM1044.183 555.366c0-140.032-94.863-274.934-278.794-274.934-126.505 0-226.509 63.263-226.509 196.844 0 165.222 120.678 276.859 287.816 276.859 127.15 0.010 217.487-64.522 217.487-198.769zM857.016 637.983c7.752 31.621-1.915 46.479-26.45 46.479-29.020 0-36.762-12.913-45.814-51.63l-56.146-235.561c-7.107-30.321-1.925-47.114 25.815-47.114 27.095 0 36.792 12.902 44.534 44.544l58.061 243.282zM1595.331 555.366c0-140.032-94.853-274.934-278.794-274.934-126.495 0-226.529 63.263-226.529 196.844 0 165.222 120.699 276.859 287.836 276.859 127.14 0.010 217.487-64.522 217.487-198.769zM1408.174 637.983c7.741 31.621-1.925 46.479-26.45 46.479-29.051 0-36.792-12.913-45.824-51.63l-56.146-235.561c-7.107-30.321-1.946-47.114 25.815-47.114 27.105 0 36.782 12.902 44.544 44.544l58.061 243.282zM1969.643 744.468c128.43 0 176.835-84.541 176.835-171.018 0-141.332-94.218-283.32-257.505-283.32h-278.149c-6.461 0-10.977 6.472-9.677 12.913l101.325 428.503c2.56 9.677 6.431 12.913 16.128 12.913l251.044 0.010zM1955.441 637.983c7.107 30.331-1.946 35.492-47.759 35.492-6.461 0-11.622-3.215-12.892-9.667l-69.069-291.062c-1.925-8.387 0.666-11.612 7.107-11.612 41.943 0 57.446 0 64.532 29.051l58.081 247.798zM2225.203 241.715c-50.35-47.114-116.173-84.541-141.988-84.541-9.021 0-12.892 7.117-12.892 13.558 0 52.931 58.071 80.005 80.671 123.269 20.664 39.997 29.041 81.951 44.534 123.259 16.128 40.643 30.966 91.638 61.307 128.42 28.396-55.501 64.532-122.604 90.993-178.749-36.137-36.803-78.756-83.261-122.624-125.215zM2571.121 504.381c5.161-3.871 11.622-12.913 12.257-23.235-187.802-92.273-287.171-303.329-480.809-372.388-6.451 8.387-9.667 16.148-12.257 25.16 187.177 66.499 282.675 280.125 480.809 370.463zM2204.549 758.016c65.833 42.588 127.14 75.51 186.511 105.841-4.506-18.084-7.096-37.437-7.096-57.446 0-14.203 1.28-30.976 7.096-43.878l-139.387-80.026c-17.449 25.815-34.857 52.275-47.124 75.51zM2265.866 586.342c1.28 16.783 3.205 32.911 3.205 49.695 0 6.451 0 12.902-1.28 19.999 50.35 0 71.629-5.806 110.367-9.032v-5.171c-36.792-19.988-74.209-42.568-112.292-55.491zM2406.543 625.070c12.257-32.266 29.686-58.726 55.501-84.541 27.105 8.407 31.621 40.663 55.501 52.275l43.233-67.123c-67.758-43.244-135.516-86.497-194.263-143.923-33.556 60.672-63.887 116.183-90.993 174.264 43.264 25.16 85.852 50.975 131.021 69.048zM2400.082 739.953h7.741l-5.161-65.188c-9.687-1.29-19.354-1.29-29.686-1.29-22.6 0-45.824 1.29-76.79 3.871l103.895 62.607zM3043.523 955.494c0-81.316-112.282-104.54-191.672-104.54-40.018 0-81.961 3.871-120.668 5.806v-5.161l36.137-14.203c-1.3-27.095-44.544-23.224-67.768-32.911 4.506-5.806 14.838-1.935 14.838-9.032v-1.935c-15.503-17.428-37.427-23.88-59.382-23.88-14.213 0-29.030 2.58-42.588 8.387l-4.506-4.516v-15.483c0-12.913-3.226-65.833-18.719-65.833-9.052 0-14.838 7.741-23.224 12.268-6.472-17.439-3.891-41.953-17.439-56.801-11.612 0-20.654 15.493-30.966 19.364-12.913-27.75-20.654-57.446-41.308-82.606-38.728 6.451-46.469 69.048-46.469 107.131 0 14.838 1.3 30.966 4.506 45.824-14.828 21.944-26.46 50.34-26.46 78.735 0 103.26 110.367 134.236 188.457 134.236 78.735 0 154.235-9.677 234.895-9.677 71.629 0 145.213 6.451 212.326 19.364v-4.536h0.010zM2493.665 752.21l-7.741 36.137-28.385 2.58 3.226-5.171c19.999-1.925 16.128-28.385 32.901-33.546zM2631.137 898.703c-3.226-1.29-7.752-1.935-10.332-1.935-9.667 0-19.999 5.806-27.75 5.806-5.171 0-10.322-3.215-14.203-10.322-10.967-10.322-28.385-9.032-41.943-10.977-4.506-16.148-22.589-25.815-36.792-27.75 6.451-3.215 14.203-5.806 23.235-5.806 3.881 0 8.376 0.645 12.923 2.58 8.387 12.257 24.525 14.203 39.363 14.203 20.664 0 18.074 23.235 32.266 23.235 1.28 0 3.226-0.635 5.796-1.29 6.461 1.935 17.439 6.451 17.439 12.257zM2745.364 486.963l-76.79 244.582c-2.591 8.407 0.635 12.913 9.032 12.913h189.092c8.387 0 14.193-5.161 16.783-12.913l43.889-141.332 113.572 141.332c6.472 7.752 13.558 12.913 23.88 12.913h90.358c7.752 0 9.032-4.506 1.925-12.913l-203.94-247.173-43.233-181.33c-1.28-6.451-9.667-12.913-16.128-12.913h-182.641c-6.461 0-10.967 6.472-9.667 12.913l43.868 183.921zM3557.243 744.468c6.441 0 10.936-6.451 9.667-12.913l-12.902-54.845c-1.311-6.451-9.687-12.902-16.169-12.902h-137.431c-5.816 0-14.213-6.451-15.493-12.913l-18.729-78.725c-0.655-5.161 1.925-7.741 7.752-7.741h84.531c6.472 0 10.967-6.441 9.687-12.913l-12.247-54.845c-1.3-6.451-9.687-12.892-16.148-12.892h-83.896c-5.806 0-10.332-2.591-11.602-7.117l-23.245-96.154c-1.3-6.472 0.645-9.687 7.096-9.687h140.042c6.472 0 10.967-6.451 9.677-12.902l-12.892-54.835c-1.29-6.451-9.687-12.913-16.148-12.913h-345.262c-6.461 0-10.967 6.461-9.687 12.913l101.325 428.503c2.591 9.677 6.472 12.913 16.138 12.913l345.938-0.031zM3994.778 303.043c0.635-6.451-5.151-12.913-11.622-12.913h-177.459c-8.397 0-13.558 5.806-14.203 12.913l-5.161 48.404c-0.655 6.461-4.536 9.677-10.967 9.677h-137.482c-6.461 0-11.612-3.215-15.493-9.677l-29.686-48.404c-3.86-6.451-10.967-12.913-20.654-12.913h-65.833c-6.461 0-9.032 6.472-5.161 12.913l260.076 429.814c5.806 10.322 14.213 12.913 20.644 12.913h153.6c7.741 0 13.558-5.161 14.203-12.913l45.199-429.814zM3763.753 442.429c6.441 0 9.667 3.226 9.042 9.687l-11.633 112.937c-0.635 5.816-5.161 6.451-9.042 0l-66.458-112.937c-3.871-6.461-2.591-9.687 3.871-9.687h74.22zM4436.224 744.468c123.249 0 163.267-58.726 163.267-123.914 0-39.363-14.203-120.678-88.402-165.202-3.236-1.946-9.697-5.806-7.107-16.783l29.686-134.892c1.28-7.076-1.311-13.527-9.687-13.527h-189.737c-6.451 0-13.548 3.86-15.503 12.902l-23.859 110.356c-1.29 6.461-2.591 11.612-9.042 11.612h-6.451c-6.472 0-10.988-3.226-12.923-12.268l-25.805-109.701c-1.311-6.451-9.687-12.902-16.159-12.902h-182.61c-6.461 0-10.967 6.461-9.687 12.902l101.325 428.503c2.58 9.677 6.472 12.913 16.128 12.913h286.566zM4386.509 637.983c7.107 30.331-1.925 35.492-47.749 35.492-6.451 0-11.612-3.215-12.913-9.667l-36.782-156.17c-1.925-8.397 0.645-11.622 7.096-11.622 41.953 0 56.791 0 63.877 29.030l26.47 112.937zM4617.564 370.79c22.579 0 40.663-18.063 40.663-40.663 0-22.559-18.084-40.643-40.663-40.643s-40.653 18.084-40.653 40.643c-0.020 22.6 18.063 40.663 40.653 40.663zM4617.564 298.506c17.428 0 31.611 14.203 31.611 31.621s-14.182 31.631-31.611 31.631-31.611-14.213-31.611-31.631c-0.010-17.408 14.182-31.621 31.611-31.621zM4624.026 326.922l12.247-20.019h-9.677l-10.977 19.374h-5.161v-19.374h-9.032v45.169h16.773c8.397 0 17.439-1.925 17.439-12.247-0.010-7.096-4.526-11.633-11.612-12.902zM4618.854 333.363c4.495 0 7.752 0.645 7.752 6.461 0 2.58-0.645 5.171-7.752 5.171h-8.397v-11.633h8.397z" horiz-adv-x="5035" />
<glyph unicode="&#xe612;" d="M986.88 421.024c-14.112 46.432-29.376 96.896-38.656 172.096 41.6 3.936 96.608 35.008 60.64 105.888-113.152 222.624-277.6 260.992-277.6 260.992l-33.472-51.104c113.44-71.616 153.984-165.856 167.36-210.848 4.672-148.544 28.288-226.56 49.472-296.384 18.4-60.608 34.304-112.992 34.304-203.744 0-37.248-21.632-77.12-82.176-77.12-57.696 0-84.48 25.248-84.48 79.328v218.016c0 100.864-81.632 143.008-140.8 154.976v338.336c0 19.52-16.832 35.2-37.664 35.2h-488.128c-20.672 0-37.44-15.68-37.44-35.2v-900.288h-38.080c-22.272 0-40.16-16.928-40.16-37.568 0-20.864 17.888-37.6 40.128-37.6h640.832c22.112 0 40.032 16.736 40.032 37.6 0 20.672-17.92 37.568-40.032 37.568h-39.456v488.768c28.512-8.992 65.76-30.464 65.76-81.76v-218.016c0-93.76 59.616-149.824 159.52-149.824 92.64 0 157.216 60.704 157.216 147.584 0 100.576-18.048 160.128-37.12 223.104zM153.312 873.184h413.024v-264.128h-413.024v264.128z" />
<glyph unicode="&#xe613;" d="M512.032 960c-282.784 0-512.032-229.248-512.032-512 0-282.784 229.248-512 512.032-512s512 229.216 512 512c0 282.752-229.216 512-512 512zM749.728 262.464l-52.192-52.16-185.536 185.504-185.504-185.504-52.16 52.16 185.504 185.536-185.504 185.504 52.16 52.192 185.504-185.536 185.536 185.504 52.192-52.192-185.504-185.472 185.504-185.536z" />
<glyph unicode="&#xe614;" d="M512 960c-282.784 0-512-229.248-512-512 0-282.784 229.216-512 512-512s512 229.216 512 512c0 282.752-229.216 512-512 512zM385.152 200.704l-188.672 188.704 52.16 52.16 136.512-136.512 390.176 390.208 52.192-52.16-442.368-442.4z" />
<glyph unicode="&#xe615;" d="M243.808-64c-11.488 0-22.912 4.192-31.872 12.384-15.52 14.208-19.776 37.024-10.336 55.904 18.144 36.288 20.704 108.768 19.84 152.32-135.456 75.072-221.44 219.072-221.44 374.784 0 236.352 192.256 428.608 428.608 428.608h279.168c236.288 0 428.544-192.256 428.544-428.608 0-236.32-192.256-428.608-428.576-428.608h-179.936l-259.296-159.776c-7.616-4.704-16.192-7.008-24.704-7.008zM314.848 182.912c0.928-16.192 2.56-56.448-1.056-101.152l175.904 108.416c7.456 4.576 16 7.008 24.768 7.008h193.312c184.288 0 334.208 149.952 334.208 334.208 0 184.32-149.952 334.24-334.208 334.24h-279.168c-184.288 0-334.208-149.952-334.208-334.24 0-129.088 75.904-247.904 193.344-302.72 15.424-7.232 25.792-22.144 27.104-39.2v-6.56z" horiz-adv-x="1136" />
<glyph unicode="&#xe616;" d="M295.104 960h-295.104l512.032-511.936-511.584-511.616 294.624-0.448 511.968 512.064z" horiz-adv-x="807" />
<glyph unicode="&#xe617;" d="M525.903 677.495c-26.84 73.915-97.639 126.728-180.803 126.728-106.159 0-192.202-86.083-192.202-192.242 0-53.070 21.516-101.15 56.284-135.938 0 0 28.418 29.089 87.049 38.101 0 0 5.778 68.531 85.432 127.576 76.952 49.165 144.24 35.774 144.24 35.774zM935.275 275.913l-17.078 9.131-22.009-16.112-30.864 16.526-0.099 2.327h0.099l30.864 16.487 22.009-16.033 17.078 9.17-21.535 16.566 22.778 12.168-8.598 16.092-22.778-12.207-1.874 26.998-17.059-9.21 1.065-26.84-31.258-16.783v35.044l24.178 11.793v19.366l-24.651-11.123v25.835h-18.222v-25.835l-24.77 11.123v-19.366l24.573-11.793v-34.906l-31.041 16.645 1.085 26.84-17.078 9.21-1.893-26.998-22.699 12.207-8.618-16.092 22.699-12.168-21.457-16.566 17.118-9.17 21.93 16.033 30.903-16.487v-2.327l-30.903-16.526-21.93 16.112-17.118-9.131 21.457-16.526-22.699-12.168 8.618-16.132 22.699 12.128 1.893-27.038 17.078 9.229-1.085 26.9 31.041 16.605v-34.946l-24.573-11.793v-19.327l24.77 11.083v-25.795h18.222v25.795l24.651-11.083v19.327l-24.178 11.793v35.084l31.258-16.743-1.065-26.9 17.059-9.229 1.874 27.038 22.778-12.128 8.598 16.132-22.778 12.168zM1079.239 110.907l-14.318 7.691-18.42-13.43-25.874 13.903-0.059 1.893h0.059l25.874 13.785 18.42-13.371 14.318 7.593-18.005 13.825 19.070 10.255-7.218 13.47-19.031-10.196-1.617 22.6-14.239-7.632 0.848-22.522-26.209-14.061v29.345l20.332 9.9v16.132l-20.727-9.19v21.516h-15.244v-21.516l-20.747 9.19v-16.132l20.609-9.9v-29.227l-25.933 13.943 0.848 22.522-14.318 7.632-1.558-22.6-18.991 10.196-7.297-13.47 19.090-10.255-17.946-13.825 14.298-7.593 18.321 13.371 25.874-13.785v-1.893l-25.874-13.903-18.321 13.43-14.298-7.691 17.946-13.785-19.090-10.216 7.297-13.489 18.991 10.216 1.558-22.6 14.318 7.691-0.848 22.541 25.933 13.903v-29.286l-20.609-9.821v-16.25l20.747 9.328v-21.575h15.244v21.575l20.727-9.328v16.25l-20.332 9.821v29.365l26.209-13.982-0.848-22.541 14.239-7.691 1.617 22.6 19.031-10.216 7.218 13.489-19.070 10.216zM899.579 541.34c0 0-74.625 205.494-301.398 86.201-76.005 54.075-173.132 3.806-173.132 3.806-102.984-56.501-104.246-140.927-104.246-140.927-152.188-16.211-129.509-164.967-129.509-164.967h822.134c0 0 40.685 161.181-113.85 215.887zM245.548 95.327c-9.644 0-17.473 7.81-17.473 17.473v128.601c0 9.644 7.829 17.473 17.473 17.473s17.473-7.81 17.473-17.473v-128.601c0-9.663-7.829-17.473-17.473-17.473zM865.58 13.563l-15.166 8.086-19.406-14.12-27.353 14.554-0.039 1.992h0.039l27.353 14.653 19.406-14.179 15.166 8.086-19.051 14.594 20.096 10.827-7.533 14.179-20.175-10.827-1.637 23.961-15.106-8.086 0.927-23.843-27.649-14.751v30.923l21.457 10.432v17.157l-21.851-9.841v22.778h-16.132v-22.778l-21.851 9.841v-17.197l21.693-10.393v-30.883l-27.412 14.712 0.927 23.843-15.067 8.086-1.657-23.961-20.155 10.827-7.573-14.179 20.096-10.827-18.972-14.594 15.087-8.086 19.386 14.179 27.353-14.653v-1.992l-27.353-14.554-19.386 14.12-15.087-8.086 18.972-14.594-20.096-10.827 7.573-14.199 20.155 10.728 1.657-23.843 15.067 8.145-0.927 23.803 27.412 14.594v-30.864l-21.693-10.314v-17.138l21.851 9.861v-22.916h16.132v22.916l21.851-9.861v17.098l-21.457 10.354v31.1l27.649-14.83-0.927-23.803 15.106-8.145 1.637 23.843 20.175-10.728 7.533 14.199-20.096 10.827zM349.636 194.938c-9.644 0-17.473 7.81-17.473 17.473v128.68c0 9.644 7.829 17.473 17.473 17.473s17.473-7.81 17.473-17.473v-128.68c0.020-9.663-7.81-17.473-17.473-17.473zM437.454-56.467c-9.644 0-17.473 7.81-17.473 17.473v128.641c0 9.644 7.829 17.473 17.473 17.473s17.473-7.81 17.473-17.473v-128.641c0-9.663-7.829-17.473-17.473-17.473zM523.182 146.208c-9.644 0-17.473 7.81-17.473 17.473v128.641c0 9.644 7.829 17.473 17.473 17.473s17.473-7.81 17.473-17.473v-128.641c0.020-9.663-7.81-17.473-17.473-17.473zM631.411 17.626c-9.644 0-17.473 7.81-17.473 17.473v128.641c0 9.644 7.81 17.473 17.473 17.473s17.473-7.81 17.473-17.473v-128.641c-0.020-9.644-7.829-17.473-17.473-17.473zM162.746 523.942l16.892-37.293-128.335-58.13-16.892 37.293 128.335 58.13zM616.116 830.023l21.815-34.619-119.174-75.097-21.815 34.619 119.174 75.097zM349.586 959.985l40.704-4.199-14.457-140.161-40.704 4.199 14.457 140.161zM4.896 682.551l139.893-16.867-4.898-40.627-139.893 16.867 4.898 40.627zM131.010 885.526l87.97-110.047-31.964-25.551-87.97 110.047 31.964 25.551z" horiz-adv-x="1080" />
<glyph unicode="&#xe618;" d="M0-64l990.144 16.352-948.96 12.736 252.128 424.672s228.288 356.288 277.888 356.16c44.288-0.064 149.376-329.632 149.376-329.632s50.688 68.224 71.712 67.552c51.456-1.6 231.712-370.592 231.712-370.592s-190.016 516.736-238.912 517.792c-37.984 0.8-62.816-71.936-62.816-71.936l-118.016 354.24c-30.528 107.776-71.424-4.832-71.424-4.832l-237.472-431.872-295.36-540.64zM728.192 432.608c137.216-67.936-11.52-217.92-52.768-263.264-71.392-78.688 53.984-191.68 89.216-220.864 31.264 0.352-417.92 6.016-386.368 0.512-52.192 141.632 23.456 257.44 241.184 316.8 188.704 51.456 123.136 128.672 101.12 150.496z" />
<glyph unicode="&#xe619;" d="M859.606 838.3l-402.524-679.826h805.049zM830.852 605.228h57.598l-10.056-233.132h-37.485l-10.056 233.132zM832.689 275.176v53.955h53.955v-53.955h-53.955z" horiz-adv-x="1719" />
<glyph unicode="&#xe61a;" d="M739.683 691.279l244.032-243.972-243.701-243.761 41.339-0.331 244.032 244.092-244.002 243.972zM859.606 830.532c-211.334 0-383.255-171.921-383.255-383.255s171.921-383.255 383.255-383.255c211.334 0 383.255 171.921 383.255 383.255s-171.951 383.255-383.255 383.255zM859.606 94.131c-194.744 0-353.146 158.432-353.146 353.146s158.402 353.146 353.146 353.146c194.714 0 353.146-158.432 353.146-353.146s-158.432-353.146-353.146-353.146z" horiz-adv-x="1719" />
<glyph unicode="&#xe61b;" d="M1019.661 450.169c0-279.175-227.288-505.492-507.661-505.492s-507.661 226.316-507.661 505.492c0 279.175 227.288 505.492 507.661 505.492s507.661-226.316 507.661-505.492z" />
<glyph unicode="&#xe61c;" d="M481.923 271.287l-170.494 170.511 47.15 47.15 123.344-123.344 352.61 352.576 47.15-47.15z" horiz-adv-x="1182" />
<glyph unicode="&#xe61d;" d="M678.044 959.858v0.087c0 0-254.352 6.977-324.841-22.888-31.647-13.411-221.444-71.293-221.444-488.402 0 0 0 0 0 0s0 0 0 0c0.022-417.109 189.797-474.991 221.444-488.402 70.489-29.887 324.841-22.888 324.841-22.888v0.065c111.983 2.13 202.556 230.138 202.556 511.203 0 281.087-90.573 509.095-202.556 511.225zM690.020-0.232c-1.174 0-2.369 0.174-3.543 0.239-92.312 5.021-166.583 203.881-166.583 448.626 0 244.766 74.271 443.627 166.583 448.648 1.174 0.065 2.369 0.239 3.543 0.239 93.985 0 170.147-200.969 170.147-448.887 0.022-247.896-76.14-448.865-170.147-448.865zM692.759 866.873c-0.717 0-1.413-0.152-2.174-0.174-48.579-1.891-91.703-66.664-118.916-166.365h1.826c82.052 0 103.94-183.58 103.94-251.722 0-68.011-21.888-251.722-103.94-251.722h-1.826c27.213-99.571 70.315-164.366 118.916-166.235 0.739-0.022 1.435-0.174 2.174-0.174 83.661 0 151.607 187.275 151.607 418.152 0 230.964-67.946 418.239-151.607 418.239z" />
<glyph unicode="&#xe61e;" d="M984.572 800.026c-0.61 48.222-47.73 86.922-107.246 88.083l-21.248 0.039-0.020-9.818-0.020-9.916-0.197-101.973c-0.079-13.143-7.516-23.059-17.353-23.137l-87.945 0.157c-3.955 0.039-7.752 1.692-10.683 4.702-4.23 4.328-6.611 11.077-6.532 18.533l0.177 101.973v9.877l0.020 9.818-84.187 0.157-0.020-9.798-0.020-9.877-0.157-97.9c0-13.182-7.457-23.118-17.373-23.118l-87.925 0.118c-3.994 0.039-7.791 1.731-10.723 4.761-4.21 4.289-6.611 11.214-6.493 18.553l0.177 97.802 0.020 9.877 0.020 9.818-84.227 0.177-0.020-9.837v-9.857l-0.118-93.808c-0.059-13.221-7.555-23.137-17.412-23.137l-87.788 0.157c-9.936 0.079-17.392 10.034-17.392 23.137l0.177 93.907v9.837l0.020 9.837-84.168 0.177-0.020-9.837v-9.857l-0.157-89.755c-0.118-13.221-7.594-23.098-17.353-23.098l-87.866 0.157c-3.935 0.020-7.732 1.672-10.683 4.683-4.21 4.25-6.67 11.175-6.591 18.533l0.157 89.755v9.837l0.020 9.837h-2.085c-59.476 0-107.757-37.775-109.863-85.997l-0.354-8.027 0.295-0.079-0.177-91.742-1.239-668.462c0.846-45.724 43.461-82.889 100.065-87.571l19.006-0.767v0.275l753.987-1.377c59.712 0 108.112 37.893 110.217 86.607 0 2.912-0.118 2.381-0.118 2.223l1.239 669.091 0.177 96.248zM926.768 43.659l-0.807 0.039 0.767-12.060c-1.495-13.713-21.819-31.932-53.672-31.971l-764.414 1.535c-32.758 0.649-52.492 20.284-52.197 34.234l1.062 570.148 0.393-0.020c0.118 13.93 20.501 33.368 53.593 33.368l763.175-1.495c0.453 0 0.944 0 1.377 0.020h0.039c32.699-0.748 52.334-20.265 52.039-34.175l-1.358-559.622zM753.298 933.262l-0.079-44.937-0.020-9.818-0.020-9.877-0.177-102.071c-0.039-1.456 0.216-2.617 0.433-3.423l82.22-0.157c0.275 0.826 0.492 2.007 0.492 3.541l0.197 101.953 0.020 9.896 0.020 9.818 0.079 44.917c0 1.495-0.236 2.656-0.472 3.463h-82.24c-0.236-0.807-0.453-1.889-0.453-3.305zM546.539 888.719l-0.020-9.818-0.020-9.877-0.197-97.94c0-1.535 0.197-2.695 0.433-3.482l82.259-0.118c0.236 0.807 0.453 1.967 0.453 3.443l0.157 97.94 0.020 9.877 0.020 9.818 0.079 47.966h-83.105l-0.079-47.809zM339.799 889.132l-0.020-9.837v-9.837l-0.197-93.887c0-1.495 0.216-2.656 0.472-3.463l82.24-0.157c0.275 0.807 0.512 2.007 0.512 3.502l0.098 93.847v9.837l0.020 9.837 0.079 47.573h-83.105l-0.098-47.416zM133.098 889.546l-0.020-9.837v-9.857l-0.157-89.795c-0.020-1.495 0.216-2.676 0.453-3.482l82.18-0.118c0.256 0.807 0.492 2.007 0.512 3.561l0.157 89.676v9.857l0.020 9.837 0.079 47.16h-83.145l-0.079-47.002zM448.835 335.845c30.751 16.802 37.5 39.408 37.5 79.8 0 46.137-25.951 88.909-77.38 88.909-51.921 0-81.216-33.643-81.216-80.744v-16.35h53.83v14.421c0 27.407 10.093 35.572 26.915 35.572 17.786 0 24.023-13.477 24.023-46.156 0-41.336-13.457-52.865-48.537-52.865v-47.12c36.536 0 50.957-11.529 50.957-49.009v-26.443c0-28.843-11.057-40.864-28.351-40.864-18.258 0-26.915 12.985-26.915 34.607v23.55h-53.83v-20.658c0-59.594 29.807-84.6 79.308-84.6 59.102 0 86.509 32.679 86.509 101.894-0.039 47.12-7.712 67.779-42.812 86.056zM594.918 504.535c-59.594 0-84.62-29.807-84.62-95.166v-166.289c0-65.359 25.006-95.166 84.62-95.166s84.581 29.807 84.581 95.166v166.289c0 65.359-24.967 95.166-84.581 95.166zM622.777 228.167c0-22.567-10.093-33.171-27.859-33.171-17.786 0-27.898 10.585-27.898 33.171v196.116c0 22.586 10.113 33.171 27.898 33.171 17.766 0 27.859-10.565 27.859-33.171v-196.116zM753.77 936.548h82.22l-82.22 0.138z" horiz-adv-x="985" />
<glyph unicode="&#xe61f;" d="M88.981 375.692l144.038 128.88-16.952 18.675-134.454-120.369c-3.2-2.849-8.476-2.145-11.852 1.565-3.359 3.675-3.499 9.003-0.334 11.782l134.507 120.369-19.414 21.506-134.507-120.386c-3.13-2.831-8.423-2.145-11.782 1.547s-3.499 9.039-0.334 11.852l134.524 120.333-17.005 18.728-144.020-128.897c-13.962-12.503-7.878-41.729 13.558-65.363 21.436-23.687 50.082-32.761 64.027-20.223zM393.78 666.23l79.536 101.008-29.824 33.024-109.431-68.089-12.239-37.473-58.1-52.016 33.2-36.647 58.048 52.016zM437.074 530.879c-26.131 28.997-66.84 38.458-102.836 24.32l-138.745 154.237c17.796 34.273 12.608 75.738-13.505 104.771-19.238 21.401-46.829 32.497-75.597 30.422-1.618-0.088-3.077-0.739-4.273-1.794-0.739-0.739-1.372-1.618-1.811-2.62-1.002-2.497-0.492-5.381 1.301-7.386l35.31-39.197c16.741-18.64 15.281-47.462-3.359-64.238-18.658-16.811-47.462-15.299-64.273 3.359l-35.31 39.197c-1.794 2.005-4.607 2.814-7.21 2.075-1.073-0.299-1.987-0.844-2.761-1.565-1.196-1.038-1.97-2.444-2.268-4.009-5.1-28.4 3.095-56.993 22.386-78.393 26.043-29.015 66.77-38.458 102.749-24.337l138.727-154.202c-17.778-34.22-12.608-75.791 13.505-104.788 19.291-21.383 46.811-32.462 75.633-30.439 1.618 0.141 3.095 0.774 4.22 1.829 0.791 0.721 1.495 1.618 1.846 2.62 1.020 2.532 0.492 5.381-1.284 7.403l-35.275 39.144c-16.758 18.675-15.246 47.479 3.394 64.238 18.658 16.829 47.444 15.299 64.255-3.324l35.258-39.179c1.811-2.022 4.607-2.814 7.192-2.093 1.055 0.246 2.005 0.844 2.849 1.547 1.143 1.020 1.917 2.427 2.198 4.009 5.082 28.417-3.060 56.993-22.315 78.393zM237.735 556.651l-19.854-17.923-33.265 36.849 19.854 17.923 33.265-36.849zM1027.891 133.249l-0.018 279.248-154.712-1.073c0 0 109.378 62.655 154.712 77.796v41.764c-32.427-13.101-174.829-81.787-230.608-112.754l-350.133 180.773 24.918-36.665 270.473-159.899c-97.596-3.851-207.484-26.676-267.396-41.483-65.609-16.231-84.97-38.335-93.112-45.334-42.38-37.772-37.298-164.454-37.298-164.454l115.568-19.607c-2.55 10.445-4.027 21.295-4.027 32.532 0 76.406 61.899 138.27 138.252 138.27 76.336 0 138.2-61.881 138.2-138.27 0-10.621-1.266-20.908-3.517-30.844h298.697zM594.511 277.516c-62.637 0-113.423-50.768-113.423-113.405 0-62.62 50.785-113.37 113.423-113.37 62.637 0 113.423 50.768 113.423 113.37 0 62.637-50.785 113.405-113.423 113.405zM594.511 85.964c-43.171 0-78.165 34.976-78.165 78.13 0 43.206 34.994 78.165 78.165 78.165 43.153 0 78.165-34.959 78.165-78.165 0-43.153-35.012-78.13-78.165-78.13z" />
<glyph unicode="&#xe620;" d="M411.841 452.35l-1.182 1.163c-26.547 26.223-45.109 54.505-58.297 88.809-45.129-19.248-88.561-44.595-130.621-69.122l-2.859-1.677c28.625-62.452 62.204-123.703 91.572-176.474h3.678c63.386 60.337 136.929 106.723 196.218 144.057l1.105 2.763-41.965 65.768c-9.605-5.546-16.027-14.693-22.774-24.375-8.538-12.178-17.381-24.794-33.351-30.378l-1.525-0.534zM208.019 508.151c31.883 11.168 63.786 29.044 94.678 46.386 6.003 3.373 12.025 6.746 18.009 10.043v1.029c-12.083 1.029-23.86 2.592-36.248 4.231-23.231 3.087-47.206 6.289-74.706 5.813 2.306-16.161 0.953-32.303-0.381-47.987-0.515-6.422-1.086-13.016-1.353-19.515zM970.726 815.627c13.112 7.966 55.401 37.105 53.685 79.699-68.703-12.788-144.934-19.534-220.65-19.534h-0.019c-47.111 0-93.516 2.554-138.035 7.585-3.43-0.076-7.204-0.114-10.996-0.114-16.485 0-33.37 0.553-49.702 1.124-16.199 0.553-32.951 1.124-49.131 1.124-52.885 0-107.924-5.203-152.061-43.032-20.106-16.123-35.18-39.125-40.421-61.632-13.34-34.418-6.156-73.296 21.211-115.909l0.591-0.915-0.229-1.067c-7.166-32.646-6.175-74.153 2.706-113.908 1.086-2.001 2.173-4.174 3.335-6.422 8.080-15.837 18.067-35.466 35.257-37.353 14.617 17.8 23.041 39.011 31.197 59.517 3.392 8.519 6.899 17.362 10.806 25.861l1.048 2.23 2.287-0.896c5.088-2.001 9.777-6.137 14.312-10.12 5.374-4.764 10.92-9.643 16.695-10.539 7.585 9.224 9.681 22.069 11.682 34.513 1.334 8.138 2.725 16.523 5.622 23.765l1.010 2.554 2.497-1.163c3.297-1.525 6.213-3.754 9.052-5.889 5.050-3.831 9.796-7.337 15.932-6.88 15.742 24.013 16.79 55.839 15.704 83.873l-0.057 1.029 6.194 7.147 1.753-0.705c14.369-5.946 29.921-9.11 44.957-9.11 17.076 0 41.088 4.078 59.079 23.441 0.362 2.897-0.781 3.449-5.431 4.498-3.125 0.686-6.67 1.506-8.938 4.44l-2.058 2.725 3.145 1.296c7.642 3.164 16.085 4.555 24.222 5.927 8.233 1.334 15.97 2.649 23.041 5.584l0.553 0.305c8.214 4.307 19.286 10.082 20.963 19.458l-37.696 14.732v10.101l2.744-0.172c12.635-0.724 25.461-1.62 38.42-2.516 29.749-2.077 60.47-4.25 90.6-4.25 61.251 0.019 107.39 9.395 145.124 29.597zM444.849 677.116c-9.453 2.592-13.359 10.672-17.114 18.467-4.097 8.519-7.642 15.875-17.686 16.809l-1.506 0.152-4.955 10.958 35.867-3.735 9.529-43.775-4.136 1.124zM573.298 819.363l-0.896-0.267-0.858 0.362c-7.871 3.373-11.225-0.686-16.123-9.414-3.373-5.965-7.185-12.788-14.693-14.274-2.439-0.114-4.517-0.152-6.651-0.172-16.294-0.286-33.16-0.534-41.755-13.607l-0.4-0.629-0.667-0.305c-4.421-2.039-9.548-3.087-15.265-3.087-8.366 0-17.495 2.268-25.023 6.27l-7.375 3.888 8.29 1.010c14.598 1.753 32.455 11.111 37.182 27.538l0.438 1.639 1.715 0.229c2.859 0.381 5.889 0.667 9.014 0.934 11.568 1.048 24.661 2.211 33.427 9.681 3.964 7.604 9.491 11.32 16.866 11.32 4.612 0 9.338-1.372 14.35-2.821 8.462-2.497 17.59-4.364 24.318-0.629l3.526 1.982 0.343-4.021c0.743-9.071-14.941-14.255-19.763-15.627zM33.47 3.085c67.731 27.958 123.989 63.1 171.919 107.466l2.211 2.23c103.159 104.436 209.806 212.455 330.479 281.71-0.591 7.566-5.774 13.645-10.787 19.515l-1.124 1.334c-10.12-1.753-18.657-7.661-27.653-13.912-5.355-3.716-10.901-7.547-16.885-10.501-77.812-41.584-143.123-108.686-206.28-173.634-75.392-77.488-153.338-157.607-252.095-192.521 0.343-0.934 0.667-1.868 1.029-2.782 2.477-6.785 4.783-13.188 9.186-18.905zM85.783 194.328c-9.357-18.867-24.775-34.723-39.64-50.103-23.022-23.746-44.747-46.158-45.681-78.727 2.763-9.224 5.584-13.474 12.845-12.578 87.589 23.231 156.845 95.765 223.813 165.916 15.551 16.275 31.636 33.141 47.415 48.711l2.573 7.032c-19.687 42.575-44.138 89.095-67.788 134.071-8.633 16.447-17.114 32.608-25.194 48.159l-3.716-3.831c-16.771-28.777-29.52-60.68-41.832-91.572-4.841-12.159-9.872-24.718-15.075-36.991-9.472-19.439-15.704-40.498-21.707-60.851-6.918-23.384-14.045-47.53-26.014-69.236zM318.058 598.408v0c10.92 0 20.506 0.4 29.254 1.258l4.155 63.767h-3.85l-102.797-60.813c21.211-1.982 48.445-4.212 73.239-4.212zM143.795 683.234c12.921-23.041 27.748-46.348 45.3-71.161l6.613-0.076 134.604 76.783 2.192 4.459c-9.967 33.694-4.879 71.847 0.629 99.386-64.11-32.265-125.476-66.969-187.375-105.865l-1.963-3.526z" />
<glyph unicode="&#xe621;" d="M842.012 370.52c-13.648 13.446-43.914 20.566-89.972 21.172-31.178 0.344-68.702-2.402-108.17-7.928-17.674 10.198-35.892 21.294-50.188 34.658-38.462 35.916-70.568 85.772-90.576 140.594 1.304 5.12 2.414 9.62 3.448 14.212 0 0 21.666 123.060 15.93 164.666-0.79 5.706-1.274 7.362-2.808 11.796l-1.882 4.834c-5.896 13.592-17.448 27.994-35.566 27.208l-10.916 0.344c-20.2 0-36.664-10.332-40.986-25.774-13.138-48.434 0.418-120.892 24.982-214.738l-6.288-15.286c-17.588-42.876-39.63-86.060-59.078-124.158l-2.528-4.952c-20.46-40.038-39.024-74.026-55.854-102.822l-17.376-9.188c-1.264-0.668-31.044-16.418-38.028-20.644-59.256-35.382-98.522-75.54-105.036-107.416-2.072-10.17-0.53-23.186 10.014-29.214l16.806-8.458c7.29-3.652 14.978-5.502 22.854-5.502 42.204 0 91.2 52.572 158.696 170.366 77.93 25.368 166.654 46.456 244.414 58.090 59.258-33.368 132.142-56.546 178.142-56.546 8.168 0 15.212 0.778 20.932 2.296 8.822 2.336 16.258 7.366 20.792 14.192 8.926 13.432 10.734 31.932 8.312 50.876-0.722 5.624-5.212 12.576-10.070 17.322zM211.646 145.952c7.696 21.042 38.16 62.644 83.204 99.556 2.832 2.296 9.808 8.832 16.194 14.902-47.102-75.124-78.646-105.066-99.398-114.458zM478.434 760.314c13.566 0 21.284-34.194 21.924-66.254s-6.858-54.56-16.158-71.208c-7.702 24.648-11.426 63.5-11.426 88.904 0 0-0.566 48.558 5.66 48.558zM398.852 322.506c9.45 16.916 19.282 34.756 29.33 53.678 24.492 46.316 39.958 82.556 51.478 112.346 22.91-41.684 51.444-77.12 84.986-105.512 4.184-3.542 8.618-7.102 13.274-10.65-68.21-13.496-127.164-29.91-179.068-49.862zM828.904 326.348c-4.154-2.598-16.054-4.1-23.708-4.1-24.706 0-55.272 11.294-98.126 29.666 16.468 1.218 31.562 1.838 45.1 1.838 24.782 0 32.12 0.108 56.35-6.072s24.538-18.734 20.384-21.332zM903.432 760.57l-142.864 142.862c-31.112 31.112-92.568 56.568-136.568 56.568h-480c-44 0-80-36-80-80v-864c0-44 36-80 80-80h736c44 0 80 36 80 80v608c0 44-25.456 105.458-56.568 136.57zM858.178 715.314c3.13-3.13 6.25-6.974 9.28-11.314h-163.458v163.456c4.34-3.030 8.184-6.15 11.314-9.28l142.864-142.862zM896 16c0-8.672-7.328-16-16-16h-736c-8.672 0-16 7.328-16 16v864c0 8.672 7.328 16 16 16h480c4.832 0 10.254-0.61 16-1.704v-254.296h254.296c1.094-5.746 1.704-11.166 1.704-16v-608z" />
<glyph unicode="&#xe622;" d="M962.886 292.351c-62.131 62.131-154.705 78.587-233.811 42.604l-330.1 330.162c35.942 79.085 19.486 171.639-42.624 233.749-45.841 45.841-109.051 67.485-173.465 59.537-3.611-0.477-6.848-2.117-9.318-4.586-1.702-1.702-3.051-3.777-3.839-6.122-1.971-5.769-0.457-12.161 3.839-16.456l83.9-83.9c39.927-39.927 39.927-104.859 0-144.786-39.927-39.968-104.901-39.968-144.827 0l-83.9 83.9c-4.275 4.296-10.687 5.811-16.456 3.818-2.345-0.809-4.42-2.158-6.122-3.818-2.449-2.511-4.088-5.748-4.524-9.318-7.989-64.434 13.655-127.665 59.496-173.506 62.090-62.090 154.705-78.546 233.79-42.604l330.1-330.12c-35.942-79.044-19.486-171.68 42.604-233.79 45.841-45.799 109.072-67.485 173.506-59.496 3.59 0.436 6.848 2.117 9.318 4.545 1.66 1.702 3.030 3.818 3.818 6.122 1.971 5.79 0.477 12.202-3.818 16.498l-83.9 83.858c-39.947 39.927-39.947 104.901 0 144.827 39.927 39.927 104.901 39.927 144.827 0l83.9-83.9c4.296-4.296 10.666-5.79 16.456-3.818 2.303 0.809 4.379 2.158 6.080 3.818 2.469 2.469 4.088 5.707 4.586 9.318 7.969 64.434-13.717 127.665-59.516 173.465z" />
<glyph unicode="&#xe623;" d="M315.551 117.077h28.583l-28.378 28.398 30.478 30.478-30.478 30.478 30.478 30.457-30.478 30.478 30.478 30.519-30.478 30.457 30.478 30.519-30.478 30.457 30.478 30.478-30.478 30.478 30.478 30.478-30.478 30.478 30.478 30.478-30.478 30.478 30.478 30.478-30.478 30.478 30.478 30.478-30.478 30.457 30.478 30.478-30.478 30.478 23.806 23.806h-40.322c-21.644 0-39.168-17.545-39.168-39.21v-583.49c0-21.644 29.675-39.168 51.318-39.168zM446.894 175.973l30.478 30.478-30.478 30.457 30.478 30.519-30.478 30.499 30.478 30.437-30.478 30.54 30.478 30.437-30.478 30.499 30.478 30.478-30.478 30.478 30.478 30.499-30.478 30.478 30.478 30.499-30.478 30.478 30.478 30.499-30.478 30.478 30.478 30.457-30.478 30.519 30.478 30.457-23.806 23.806h-32.27v-661.888h27.698l28.378 28.439zM343.908 755.159l30.478-30.499-30.478-30.478 30.478-30.457-30.478-30.478 30.478-30.499-30.478-30.478 30.478-30.499-30.478-30.478 30.478-30.499-30.478-30.478 30.478-30.478-30.478-30.499 30.478-30.437-30.478-30.54 30.478-30.437-30.478-30.499 30.478-30.519-30.478-30.499 30.478-30.437-30.478-30.499 28.419-28.398h25.906v661.888h-30.519zM503.464 755.159l-30.457-30.478 30.457-30.478-30.457-30.457 30.457-30.478-30.457-30.478 30.457-30.478-30.457-30.478 30.457-30.478-30.457-30.478 30.457-30.478-30.457-30.478 30.457-30.478-30.457-30.457 30.457-30.519-30.457-30.457 30.457-30.478-30.457-30.519 30.457-30.478-30.457-30.457 30.457-30.478-28.419-28.398h44.523c21.644 0 39.168 17.545 39.168 39.168v583.387c0 21.685-17.545 39.21-39.168 39.21h-39.91l23.806-23.806zM588.082 799.434l17.772 36.718 6.116 12.541-12.685 5.828c-59.782 27.513-123.683 41.475-189.87 41.516-66.166-0.041-130.046-14.003-189.87-41.475l-12.665-5.869 6.075-12.541 17.772-36.718-113.901 39.58 39.58 113.901 16.742-34.514 5.848-12.15 12.232 5.704c68.658 31.92 142.073 48.044 218.165 48.044s149.528-16.125 218.206-48.023l12.232-5.704 5.848 12.109 16.742 34.555 39.539-113.901-113.881-39.601zM230.748 96.607l-23.888-49.3 12.685-5.828c59.823-27.513 123.683-41.475 189.87-41.475 66.146 0 130.046 13.962 189.87 41.475l12.665 5.828-6.096 12.582-17.751 36.718 113.901-39.58-39.601-113.943-22.591 46.664-12.232-5.663c-68.658-31.899-142.073-48.065-218.186-48.065s-149.528 16.166-218.206 48.065l-12.212 5.663-5.869-12.109-16.722-34.555-39.58 113.943 113.943 39.58zM787.404 461.622h32.579v-27.142h-32.579v27.142zM722.247 461.622h32.579v-27.142h-32.579v27.142zM657.049 461.622h32.579v-27.142h-32.579v27.142zM591.892 461.622h32.62v-27.142h-32.62v27.142zM195.492 461.622h32.579v-27.142h-32.579v27.142zM130.335 461.622h32.599v-27.142h-32.599v27.142zM65.178 461.622h32.579v-27.142h-32.579v27.142zM0 461.622h32.599v-27.142h-32.599v27.142z" horiz-adv-x="820" />
<glyph unicode="&#xe624;" d="M34.728 667.718h15.285l-15.191 12.55 16.315 13.468-16.296 13.43 16.315 13.468-16.315 13.449 16.315 13.468-16.315 13.468 16.315 13.505-16.315 13.412 16.315 13.468-16.315 13.468 16.315 13.468-16.315 13.449 16.315 13.468-16.315 13.468 16.315 13.468-16.315 13.449 16.315 13.468-16.315 13.468 16.315 13.468-16.315 13.449 12.737 10.508h-21.541c-11.595 0-20.96-7.717-20.96-17.308v-257.667c0-9.59 15.884-17.308 27.441-17.308zM104.97 693.735l16.296 13.43-16.296 13.468 16.296 13.487-16.296 13.43 16.296 13.468-16.296 13.505 16.296 13.412-16.296 13.468 16.296 13.468-16.296 13.468 16.296 13.449-16.296 13.468 16.296 13.468-16.296 13.468 16.296 13.449-16.296 13.468 16.296 13.468-16.296 13.468 16.296 13.449-12.737 10.508h-17.214v-292.282h14.779l15.172 12.55zM49.881 949.492l16.315-13.449-16.315-13.468 16.315-13.468-16.315-13.468 16.315-13.449-16.315-13.468 16.315-13.468-16.315-13.468 16.315-13.449-16.315-13.468 16.315-13.468-16.315-13.468 16.315-13.412-16.315-13.505 16.315-13.468-16.315-13.43 16.315-13.487-16.315-13.468 16.315-13.43-16.315-13.468 15.229-12.55h13.842v292.282h-16.315zM135.24 949.492l-16.315-13.449 16.315-13.468-16.315-13.468 16.315-13.468-16.315-13.449 16.315-13.468-16.315-13.468 16.315-13.468-16.315-13.449 16.315-13.468-16.315-13.468 16.315-13.468-16.315-13.412 16.315-13.505-16.315-13.468 16.315-13.43-16.315-13.505 16.315-13.468-16.315-13.43 16.315-13.468-15.21-12.55h23.807c11.557 0 20.96 7.717 20.96 17.308v257.686c0 9.553-9.403 17.308-20.96 17.308h-21.354l12.756-10.508zM665.671 667.718h15.285l-15.154 12.55 16.277 13.468-16.277 13.43 16.277 13.468-16.277 13.468 16.277 13.468-16.277 13.468 16.277 13.505-16.277 13.43 16.277 13.468-16.277 13.468 16.277 13.468-16.277 13.468 16.277 13.468-16.277 13.468 16.277 13.468-16.277 13.468 16.277 13.468-16.277 13.468 16.277 13.468-16.277 13.468 12.737 10.415h-21.56c-11.557 0-20.96-7.717-20.96-17.308v-257.667c0-9.59 15.884-17.308 27.441-17.308zM735.913 693.735l16.315 13.43-16.315 13.468 16.315 13.487-16.315 13.43 16.315 13.468-16.315 13.505 16.315 13.412-16.315 13.468 16.315 13.468-16.315 13.468 16.315 13.449-16.315 13.468 16.315 13.468-16.315 13.468 16.315 13.449-16.315 13.468 16.315 13.468-16.315 13.468 16.315 13.449-12.737 10.508h-17.233v-292.282h14.798l15.172 12.55zM680.862 949.492l16.277-13.449-16.277-13.468 16.277-13.468-16.277-13.468 16.277-13.449-16.277-13.468 16.277-13.468-16.277-13.468 16.277-13.449-16.277-13.468 16.277-13.468-16.277-13.468 16.277-13.412-16.277-13.505 16.277-13.468-16.277-13.43 16.277-13.487-16.277-13.468 16.277-13.43-16.277-13.468 15.172-12.55h13.861v292.282h-16.315zM766.164 949.492l-16.277-13.468 16.277-13.468-16.277-13.468 16.277-13.468-16.277-13.468 16.277-13.468-16.277-13.468 16.277-13.468-16.277-13.468 16.277-13.468-16.277-13.468 16.277-13.468-16.277-13.43 16.277-13.505-16.277-13.468 16.277-13.43-16.277-13.505 16.277-13.468-16.277-13.43 16.277-13.468-15.21-12.55h23.807c11.595 0 20.96 7.717 20.96 17.308v257.761c0 9.553-9.366 17.308-20.96 17.308h-21.335l12.737-10.508zM34.728-64h15.285l-15.191 12.55 16.315 13.468-16.296 13.449 16.315 13.468-16.315 13.468 16.315 13.468-16.315 13.449 16.315 13.468-16.315 13.468 16.315 13.468-16.315 13.449 16.315 13.468-16.315 13.468 16.315 13.468-16.315 13.449 16.315 13.468-16.315 13.468 16.315 13.468-16.315 13.449 16.315 13.468-16.315 13.468 12.737 10.508h-21.541c-11.595 0-20.96-7.755-20.96-17.308v-257.667c0-9.59 15.884-17.345 27.441-17.345zM104.97-37.982l16.296 13.449-16.296 13.505 16.296 13.43-16.296 13.468 16.296 13.449-16.296 13.505 16.296 13.43-16.296 13.468 16.296 13.449-16.296 13.505 16.296 13.43-16.296 13.468 16.296 13.449-16.296 13.505 16.296 13.43-16.296 13.468 16.296 13.449-16.296 13.468 16.296 13.468-12.737 10.508h-17.214v-292.32h14.779l15.172 12.55zM49.881 217.812l16.315-13.468-16.315-13.487 16.315-13.43-16.315-13.468 16.315-13.468-16.315-13.505 16.315-13.412-16.315-13.468 16.315-13.468-16.315-13.468 16.315-13.449-16.315-13.468 16.315-13.468-16.315-13.505 16.315-13.412-16.315-13.468 16.315-13.468-16.315-13.468 16.315-13.449-16.315-13.468 15.229-12.55h13.842v292.32h-16.315zM135.24 217.812l-16.315-13.468 16.315-13.505-16.315-13.43 16.315-13.468-16.315-13.468 16.315-13.505-16.315-13.43 16.315-13.468-16.315-13.468 16.315-13.468-16.315-13.468 16.315-13.468-16.315-13.468 16.315-13.505-16.315-13.43 16.315-13.468-16.315-13.468 16.315-13.468-16.315-13.468 16.315-13.468-15.21-12.55h23.807c11.557 0 20.96 7.755 20.96 17.345v257.761c0 9.553-9.403 17.308-20.96 17.308h-21.354l12.756-10.508zM665.671-64h15.285l-15.154 12.55 16.277 13.468-16.277 13.468 16.277 13.468-16.277 13.468 16.277 13.468-16.277 13.468 16.277 13.468-16.277 13.468 16.277 13.468-16.277 13.468 16.277 13.468-16.277 13.468 16.277 13.468-16.277 13.468 16.277 13.468-16.277 13.468 16.277 13.468-16.277 13.468 16.277 13.468-16.277 13.468 12.719 10.508h-21.56c-11.557 0-20.96-7.755-20.96-17.308v-257.667c0-9.59 15.884-17.345 27.441-17.345zM735.913-37.982l16.315 13.449-16.315 13.505 16.315 13.43-16.315 13.468 16.315 13.449-16.315 13.505 16.315 13.43-16.315 13.468 16.315 13.449-16.315 13.505 16.315 13.43-16.315 13.468 16.315 13.449-16.315 13.505 16.315 13.43-16.315 13.468 16.315 13.449-16.315 13.468 16.315 13.468-12.737 10.508h-17.233v-292.32h14.798l15.172 12.55zM680.862 217.812l16.277-13.468-16.277-13.487 16.277-13.43-16.277-13.468 16.277-13.468-16.277-13.505 16.277-13.412-16.277-13.468 16.277-13.468-16.277-13.468 16.277-13.449-16.277-13.468 16.277-13.468-16.277-13.505 16.277-13.412-16.277-13.468 16.277-13.468-16.277-13.468 16.277-13.449-16.277-13.468 15.172-12.55h13.861v292.32h-16.315zM766.164 217.812l-16.277-13.468 16.277-13.505-16.277-13.43 16.277-13.468-16.277-13.468 16.277-13.505-16.277-13.43 16.277-13.468-16.277-13.468 16.277-13.468-16.277-13.468 16.277-13.468-16.277-13.468 16.277-13.505-16.277-13.43 16.277-13.468-16.277-13.468 16.277-13.468-16.277-13.468 16.277-13.468-15.21-12.55h23.807c11.595 0 20.96 7.755 20.96 17.345v257.761c0 9.553-9.366 17.308-20.96 17.308h-21.335l12.737-10.508zM171.972 342.262h-171.972l85.995-92.663zM64.229 646.064h43.531v-373.314h-43.531v373.314zM803.964 342.262h-171.99l86.014-92.663zM696.184 646.064h43.569v-373.314h-43.569v373.314zM245.136 48.65h-54.002v45.030h54.002c11.389 0 25.25 10.752 28.977 22.609l211.195 666.308c9.59 30.288 41.19 54.040 71.928 54.040h38.961v-45.030h-38.961c-11.407 0-25.25-10.789-28.977-22.609l-211.195-666.327c-9.628-30.288-41.19-54.021-71.928-54.021zM611.238 48.65h-54.002c-30.719 0-62.3 23.751-71.947 54.040l-211.176 666.308c-3.728 11.819-17.57 22.609-28.977 22.609h-38.961v45.030h38.961c30.738 0 62.3-23.751 71.928-54.040l211.176-666.308c3.765-11.857 17.57-22.609 28.996-22.609h54.002v-45.030zM233.204 735.15v160.564l-54.19-80.263zM569.411 895.714v-160.564l54.171 80.263z" horiz-adv-x="804" />
<glyph unicode="&#xe625;" d="M436.058 605.227l-325.766-284.577 10.42-15.307 10.465-15.284 383.98 199.097zM489.498 651.883l-31.974-27.891 82.959-121.672 37.664 19.479c85.971-78.005 204.764-103.464 305.73-64.283l-342.434 502.484c-73.387-79.657-93.156-199.498-51.944-308.117zM193.496 122.133c-1.964 2.968-3.882 5.935-5.801 8.769-25.66 38.958-45.942 69.772-74.346 140.972-0.469 1.272-1.696 2.142-3.057 2.142s-2.566-0.87-3.057-2.142c-28.404-71.2-48.686-102.014-74.346-140.972-1.919-2.834-3.838-5.801-5.801-8.769-28.627-43.621-27.199-78.095-27.065-80.571 0.067-9.862 1.071-18.698 2.856-26.753l-0.179-0.089 0.625-2.744c7.943-34.473 30.457-52.993 49.668-62.498 26.53-13.12 53.685-13.432 56.92-13.477h0.714c3.325 0.045 30.435 0.357 56.965 13.477 19.301 9.55 41.881 28.159 49.735 62.788l0.669 2.744-0.179 0.089c1.74 7.966 2.744 16.735 2.744 26.463 0.134 2.477 1.562 36.95-27.065 80.571zM172.969 4.612c-15.641 0-28.36 12.674-28.36 28.337s12.696 28.337 28.36 28.337 28.36-12.674 28.36-28.337-12.718-28.337-28.36-28.337z" horiz-adv-x="884" />
<glyph unicode="&#xe626;" d="M59.398 862.935l97.080 97.107 108.415-108.384-97.080-97.107-108.415 108.384zM759.041 467.555l-386.551 386.573c-11.325 11.303-29.669 11.303-40.949 0l-323.041-323.019c-11.37-11.347-11.325-29.647 0-40.949l386.551-386.573c11.303-11.303 29.602-11.347 40.972 0l322.997 323.019c11.325 11.303 11.325 29.647 0.022 40.949zM679.587 434.926c-8.768-8.768-22.919-8.768-31.71 0l-309.227 309.227c-8.768 8.768-8.768 22.941 0 31.71s22.941 8.768 31.71 0l309.227-309.227c8.791-8.768 8.791-22.941 0-31.71zM691.405 296.425l-125.18-125.18 235.223-235.245 72.368 178.015-182.41 182.41zM813.401 100.941l-124.844 124.866c-5.494 5.472-5.494 14.33 0 19.802 5.449 5.472 14.308 5.472 19.779 0l124.866-124.866c5.472-5.472 5.472-14.33 0-19.802-5.449-5.472-14.33-5.472-19.802 0z" horiz-adv-x="874" />
<glyph unicode="&#xe627;" d="M463.933 320.678c-106.225 0-192.339-86.079-192.339-192.287 0-106.26 86.096-192.391 192.339-192.391s192.356 86.114 192.356 192.391c-0.017 106.208-86.131 192.287-192.356 192.287zM463.933 24.256c-57.519 0-104.1 46.599-104.1 104.135 0 57.501 46.582 104.066 104.1 104.066s104.1-46.564 104.1-104.066c0-57.536-46.582-104.135-104.1-104.135zM972.529 813.88c0 2.091-0.225 4.147-0.328 6.203l-164.349-14.41c0 0-18.695 15.084-5.339 30.237 0 0 59.333 46.806 121.084 87.064-22.617 20.354-51.506 33.882-83.487 37.027-96.256-50.728-180.763-99.21-180.763-99.21s-104.014-9.745-233.789-31.152c-129.827-21.287-252.553-47.083-292.552-66.641-39.999-19.611-55.117-57.812-55.117-57.812l-71.151-128.877c-14.652-28.042-0.847-69.354-0.847-69.354 20.423-77.388 49.761-93.37 49.761-96.1 0-2.592 24.915-1.728 24.915-1.728 12.44-25.744 33.779-27.576 33.779-27.576l119.063-3.853c-3.145 15.481-4.803 31.515-4.803 47.877 0 131.071 106.277 237.4 237.383 237.4 131.14 0 237.383-106.329 237.383-237.4 0-15.118-1.434-29.874-4.095-44.249l17.883 0.207 255.369 0.674v431.674zM286.383 736.336c-2.212-27.576-9.762-47.152-9.762-47.152s-12.907-26.625-71.134-26.625c0 0-40.914 1.728-44.888-4.924l-14.237-16.932-60.456-5.304c0 0-19.559 10.263-10.695 36.923l36.474 52.473c0 0 26.677 18.591 77.336 34.625 50.676 15.999 71.151 15.153 84.904 11.974 0 0 14.686-7.568 12.457-35.057zM568.396 468.457l-104.428 104.48-104.48-104.48h67.523v-90.744h73.864v90.744z" horiz-adv-x="973" />
<glyph unicode="&#xe628;" d="M642.716 662.808c173.26 0 384.293-68.457 544.265-173.846l-183.36-336.878c-103.731 77.614-228.837 119.519-360.879 119.519-132.017 0-257.122-41.906-360.803-119.519l-183.411 336.878c159.971 105.415 370.979 173.846 544.188 173.846zM642.716 738.509c-222.97 0-478.766-100.518-642.716-226.873l260.719-479.021c96.437 100.467 231.795 163.236 382.023 163.236 150.279 0 285.587-62.769 382.049-163.236l260.744 479.021c-163.976 126.355-419.797 226.873-642.818 226.873zM698.344-61.858c-4.183-2.729-9.641-2.831-14.564-0.357l-125.87 62.769c-3.698 1.836-6.912 5.025-8.748 8.978l-269.799 553.115c-3.8 7.881-1.964 16.732 4.438 20.813s15.329 2.142 20.838-4.642l390.772-475.374c2.78-3.392 4.412-7.524 4.489-11.707l4.77-140.536c0.204-5.509-2.117-10.381-6.325-13.059zM617.491 385.588c0 0.408 0 13.85-1.428 36.218l50.399 3.112c1.53-24.689 1.53-39.33 1.53-39.33h-50.501zM609.457 491.538c-3.035 23.618-6.836 46.905-11.273 69.273l49.506 9.794c4.668-23.44 8.672-47.874 11.86-72.615l-50.093-6.453zM581.834 628.707c-6.529 23.006-13.977 45.145-22.088 65.754l46.905 18.517c8.748-22.139 16.732-45.859 23.72-70.447l-48.537-13.824zM530.517 756.414c-11.427 20.66-24.077 39.432-37.493 55.908l39.151 31.882c15.227-18.721 29.561-40.044 42.467-63.228l-44.125-24.562zM165.098 831.35l-40.503 30.097c16.604 22.343 35.325 41.217 55.602 56.163l29.918-40.656c-16.247-11.988-31.397-27.317-45.017-45.604zM446.068 858.564c-17.395 13.441-36.218 24.409-56.010 32.52l19.231 46.65c23.95-9.845 46.726-23.083 67.666-39.279l-30.887-39.891zM265.896 904.092l-13.084 48.767c26.755 7.142 55.73 8.952 81.286 5.331l-6.963-50.017c-5.229 0.74-12.039 1.352-20.022 1.352-13.926 0-27.776-1.836-41.217-5.433zM117.428 740.32l-47.338 17.548c4.923 13.212 10.075 25.48 15.329 36.958l45.834-21.246c-4.821-10.381-9.437-21.399-13.824-33.259zM667.967 385.588h-50.476c0 0 0 14.64 1.556 39.33l50.374-3.112c-1.403-22.394-1.454-35.835-1.454-36.218zM676.052 491.538l-50.093 6.453c3.214 24.74 7.142 49.175 11.835 72.615l49.506-9.794c-4.489-22.368-8.264-45.655-11.248-69.273zM703.649 628.707l-48.537 13.824c6.989 24.587 14.946 48.308 23.746 70.447l46.93-18.517c-8.136-20.609-15.584-42.722-22.139-65.754zM755.018 756.414l-44.125 24.562c12.906 23.185 27.215 44.507 42.467 63.228l39.151-31.882c-13.416-16.477-26.067-35.249-37.493-55.908zM1120.36 831.35c-13.569 18.313-28.77 33.616-45.017 45.63l29.969 40.656c20.302-14.946 38.973-33.82 55.602-56.163l-40.554-30.122zM839.416 858.564l-30.887 39.891c20.915 16.196 43.691 29.433 67.666 39.279l19.206-46.65c-19.767-8.111-38.565-19.078-55.985-32.52zM1019.613 904.092c-13.492 3.596-27.317 5.433-41.166 5.433-8.748-0.128-14.793-0.587-20.047-1.352l-6.938 50.017c8.799 1.224 17.624 1.683 27.112 1.785 18.186 0 36.397-2.398 54.123-7.116l-13.084-48.767zM1168.030 740.32c-4.412 11.86-9.003 22.853-13.748 33.259l45.757 21.246c5.331-11.478 10.457-23.771 15.329-36.958l-47.338-17.548z" horiz-adv-x="1286" />
<glyph unicode="&#xe629;" d="M170.524 549.262l240.169 240.169-95.797 132.020-32.474-32.474-71.001 71.023-55.938-55.983-51.354 51.399-24.819-24.841c13.798-13.798 13.798-36.133 0-49.931-13.753-13.753-36.133-13.753-49.931 0l-24.796-24.841 51.354-51.286-55.938-55.96 70.978-70.978-32.474-32.474 132.020-95.842zM580.471 282.829l96.655 96.632-45.843 45.911 18.134 18.089-223.571 223.526 4.539 4.517-35.387 61.922-168.469-168.446 61.922-35.433 4.539 4.517 223.571-223.503 18.066 18.134zM709.036-25.451l276.415 276.347-131.997 95.797-33.942-33.965-84.054 53.725-4.471-4.539-15.108 15.085-132.9-132.9 15.085-15.085-4.517-4.539 53.702-83.941-33.965-33.965zM812.611-64.055l-49.922 49.88 211.332 211.511 49.922-49.88-211.332-211.511z" />
<glyph unicode="&#xe62a;" d="M99.356 499.855l165.044-93.247 165.166 93.247h-109.222v61.79h-111.855v-61.79zM264.452 380.715c-122.808 0-222.375-99.567-222.375-222.375s99.567-222.34 222.375-222.34 222.34 99.532 222.34 222.34-99.514 222.375-222.34 222.375zM264.452 35.461c-67.882 0-122.879 55.032-122.879 122.879 0 67.882 54.997 122.879 122.879 122.879 67.847 0 122.879-54.997 122.879-122.879 0-67.847-55.015-122.879-122.879-122.879zM525.955 630.826c-13.92 9.427-60.263 9.865-45.693 52.223 5.863 17.080 6.881 35.723 6.881 54.576 0 122.808-99.532 222.375-222.34 222.375s-222.375-99.567-222.375-222.375c0-16.431 1.984-32.37 5.407-47.8l-0.228 0.246c0 0 20.187-59.245-27.121-59.245-22.083 0-23.312-30.685-17.554-30.685h523.024c5.758 0 18.274 18.239 0 30.685zM264.803 614.746c-67.882 0-122.879 55.032-122.879 122.879 0 67.882 54.997 122.879 122.879 122.879 67.829 0 122.879-54.997 122.879-122.879 0-67.847-55.050-122.879-122.879-122.879zM272.878 716.226l12.762 9.093 44.008-47.519c14.254 15.43 23.066 36.003 23.277 58.631 0.035 4.933-0.334 9.743-1.071 14.429l-61.369-11.006-4.687 14.956 55.664 25.752c-12.499 21.872-34.143 37.917-59.824 42.692l-8.18-59.315-15.658 0.176-7.092 59.456c-25.769-4.353-47.712-19.959-60.597-41.656l55.208-26.7-4.968-14.851-61.158 12.095c-0.807-4.704-1.281-9.497-1.334-14.394-0.193-22.662 8.25-43.411 22.241-59.034l44.851 46.694 12.569-9.321-31.878-57.121c11.709-5.968 24.927-9.391 38.988-9.532 14.008-0.14 27.314 3.054 39.128 8.812l-30.878 57.665zM272.878 135.853l12.762 9.093 44.008-47.519c14.254 15.43 23.066 36.003 23.277 58.631 0.035 4.933-0.334 9.743-1.071 14.429l-61.369-11.006-4.687 14.956 55.664 25.752c-12.499 21.872-34.143 37.917-59.824 42.727l-8.18-59.35-15.658 0.176-7.092 59.456c-25.769-4.353-47.712-19.959-60.597-41.621l55.208-26.735-4.968-14.851-61.158 12.095c-0.807-4.704-1.281-9.497-1.334-14.394-0.193-22.662 8.25-43.411 22.241-59.034l44.851 46.694 12.569-9.321-31.878-57.121c11.709-5.968 24.927-9.391 38.988-9.532 14.008-0.14 27.314 3.054 39.128 8.812l-30.878 57.665z" horiz-adv-x="536" />
<glyph unicode="&#xe62b;" d="M347.563 819.060c17.14 5.683 35.387 8.598 54.557 8.598 16.513 0 33.395-3.598 50.406-10.48v142.822h-104.963v-140.94zM217.287 302.475h-124.298c-11.421 0-20.646 9.244-20.646 20.664 0 11.365 9.225 20.627 20.646 20.627h113.431c-3.192 14.465-5.941 29.409-8.192 44.742h-105.239c-11.421 0-20.646 9.244-20.646 20.664 0 11.384 9.225 20.627 20.646 20.627h100.442c-1.255 14.76-2.066 29.668-2.435 44.742h-98.007c-11.421 0-20.646 9.28-20.646 20.646 0 11.421 9.225 20.664 20.646 20.664h98.247c1.255 36.697 5.443 71.568 12.325 103.634h-79.649c-68.431 0.018-123.911-55.424-123.911-123.874v-172.896c0-68.431 55.48-123.893 123.911-123.893h138.726c-5.314 11.236-11.236 23.081-17.86 35.609-10.609 20.074-19.815 43.026-27.491 68.044zM676.197 619.503h-45.055c17.048-33.487 31.568-68.45 43.247-103.634h32.731c11.402 0 20.664-9.244 20.664-20.664 0-11.365-9.262-20.646-20.664-20.646h-20.443c4.004-14.981 7.454-29.926 10.314-44.742h10.148c11.402 0 20.664-9.244 20.664-20.627 0-11.421-9.262-20.664-20.664-20.664h-3.616c1.845-15.203 2.989-30.147 3.469-44.742h0.166c11.402 0 20.664-9.262 20.664-20.627 0-11.421-9.262-20.664-20.664-20.664h-0.332c-1.402-22.417-5.609-56.789-17.066-102.915 62.048 6.771 110.313 59.317 110.313 123.155v172.878c0.018 68.45-55.443 123.893-123.874 123.893zM663.226 329.523c0 199.63-149.188 454.15-261.051 454.15-188.708 0-201.844-370.737-118.487-528.725 76.937-145.811 69.76-211.346 61.291-318.947h265.645c0.314 87.97 3.137 156.734 28.432 244.353 28.542 98.745 24.17 149.169 24.17 149.169z" horiz-adv-x="800" />
<glyph unicode="&#xe62c;" d="M1225.017 790.357l-25.088 169.643h-147.655l-25.145-169.643h-778.98l-25.145 169.643h-147.598l-25.145-169.643h-50.261v-854.357h1275.278v854.357h-50.261zM923.449 385.877l-358.912-357.746c-4.864-4.836-11.264-7.339-17.749-7.339-4.949 0-9.899 1.451-14.222 4.437-9.956 6.798-13.625 19.769-8.761 30.862l100.38 227.356h-254.606c-10.183 0-19.342 6.172-23.239 15.559-3.868 9.387-1.707 20.224 5.461 27.392l358.94 357.746c4.836 4.864 11.264 7.339 17.778 7.339 4.892 0 9.899-1.451 14.165-4.409 10.012-6.798 13.653-19.797 8.818-30.862l-100.409-227.385h254.606c10.155 0 19.342-6.144 23.211-15.531s1.735-20.252-5.461-27.42z" horiz-adv-x="1275" />
<glyph unicode="&#xe62d;" d="M222.596 226.542l11.906 8.645 41.708-44.236c13.246 14.611 21.36 33.973 21.36 55.257 0 4.651-0.404 9.125-1.087 13.524l-57.532-10.819-4.525 13.979 52.047 24.646c-11.931 20.45-32.381 35.288-56.521 39.585l-7.179-55.788h-14.762l-7.179 55.788c-24.090-4.297-44.59-19.161-56.47-39.585l52.047-24.646-4.575-13.979-57.507 10.819c-0.708-4.398-1.087-8.898-1.087-13.524 0-21.284 8.064-40.672 21.334-55.257l41.733 44.236 11.906-8.645-29.499-53.892c11.046-5.485 23.483-8.594 36.678-8.594 13.17 0 25.632 3.109 36.653 8.594l-29.449 53.892zM215.391 460.967c-119.007 0-215.391-96.434-215.391-215.417 0-118.932 96.384-215.391 215.391-215.391s215.391 96.46 215.391 215.391c-0.025 118.982-96.409 215.417-215.391 215.417zM215.391 115.775c-71.713 0-129.801 58.113-129.801 129.801 0 71.738 58.088 129.852 129.801 129.852s129.826-58.113 129.826-129.852c-0.025-71.713-58.139-129.801-129.826-129.801zM1120.814 340.848l11.906 8.645 41.708-44.236c13.271 14.56 21.385 33.973 21.385 55.257 0 4.601-0.404 9.125-1.087 13.524l-57.532-10.819-4.525 13.928 52.047 24.696c-11.956 20.45-32.406 35.262-56.521 39.585l-7.154-55.788h-14.712l-7.179 55.788c-24.165-4.348-44.615-19.161-56.521-39.585l52.047-24.696-4.575-13.928-57.456 10.819c-0.733-4.398-1.137-8.948-1.137-13.524 0-21.284 8.089-40.672 21.385-55.257l41.683 44.236 11.931-8.645-29.474-53.917c11.072-5.485 23.483-8.594 36.678-8.594 13.17 0 25.632 3.109 36.653 8.594l-29.55 53.917zM1113.635 575.299c-118.957 0-215.391-96.46-215.391-215.442 0-118.932 96.409-215.391 215.391-215.391 119.007 0 215.417 96.46 215.417 215.391 0 118.982-96.409 215.442-215.417 215.442zM1113.635 230.056c-71.688 0-129.801 58.113-129.801 129.801s58.113 129.801 129.801 129.801c71.738 0 129.826-58.113 129.826-129.801s-58.088-129.801-129.826-129.801zM142.642 782.55c-3.311 25.075 14.307 48.028 39.357 51.339l953.096 125.706c25.050 3.311 48.028-14.307 51.314-39.357 3.311-25.025-14.282-47.977-39.383-51.288l-953.071-125.681c-2.047-0.303-4.044-0.455-6.067-0.455-22.598 0-42.214 16.734-45.247 39.737zM193.678 501.589v203.561c0 9.479 7.71 17.138 17.138 17.138 9.479 0 17.138-7.659 17.138-17.138v-203.561c0-9.479-7.659-17.138-17.138-17.138-9.429 0.025-17.138 7.659-17.138 17.138zM1098.797 615.895v203.511c0 9.479 7.71 17.189 17.189 17.189 9.429 0 17.088-7.71 17.088-17.189v-203.511c0-9.479-7.659-17.138-17.088-17.138-9.504 0-17.189 7.659-17.189 17.138zM726.759 220.374h-26.264v430.505h21.688l29.752 122.698-159.983-18.276 29.701-104.422h21.688v-430.505h-26.264l-144.007-284.374h397.694z" horiz-adv-x="1329" />
<glyph unicode="&#xe62e;" d="M941.427 529.142v-359.957c71.271 14.905 124.817 78.065 124.817 153.782v52.352c0.021 75.697-53.546 138.898-124.817 153.823zM0 375.319v-52.352c0-75.738 53.587-138.877 124.817-153.803v359.978c-71.23-14.905-124.817-78.126-124.817-153.823zM905.318 644.016c0 174.225-167.534 315.984-373.421 315.984-205.908 0-373.421-141.76-373.421-315.984v-90.561h-8.296v-408.624h69.85v30.715h25.713c0 0 32.053 1.132 32.053 32.053v283.972c0 30.942-32.053 32.033-32.053 32.033h-25.713v29.871h-8.523v90.561c0 54.081 20.051 104.415 54.308 146.247 0.041-0.103 17.54-25.26 29.11-13.67 11.59 11.57 85.785 102.748 236.993 102.748 151.188 0 225.362-91.178 236.973-102.748s29.048 13.567 29.13 13.67c34.256-41.811 54.287-92.166 54.287-146.247v-90.561h-6.011v-29.871h-23.86c0 0-32.053-1.091-32.053-32.033v-283.972c0-30.921 32.053-32.053 32.053-32.053h23.819v-30.715h21.698v-49.058l-154.647-107.998h-56.325c-5.414 14.719-19.434 25.301-36.027 25.301h-83.664c-21.287 0-38.538-17.252-38.538-38.559 0-21.266 17.252-38.518 38.538-38.518h83.664c16.593 0 30.612 10.582 36.027 25.301h64.663l172.825 120.658v62.892h21.637v408.604h-10.787v90.561z" horiz-adv-x="1066" />
<glyph unicode="&#xe62f;" d="M767.913 297.832c17.067 0 31.033 13.935 31.033 31.087v158.405c0 17.125-13.935 31.089-31.033 31.089-17.125 0-31.087-13.935-31.087-31.089v-158.405c0-17.152 13.937-31.087 31.087-31.087zM767.913 268.521c-19.070 0-34.503-15.432-34.503-34.503s15.432-34.501 34.503-34.501c19.014 0 34.503 15.432 34.503 34.501s-15.487 34.503-34.503 34.503zM1331.713 645.393v-122.775h-45.56l-126.753 158.433h-205.969v126.781h95.072v63.361h-562.473v-63.361h95.015v-126.781h-225.774l-95.072-158.405h-106.976v-103.028h-87.144v286.54c0 0 0 36.929-36.957 36.929-36.985 0-39.609-34.277-39.609-34.277v-145.287l50.161-87.116v-56.817h-60.738v-79.245h60.738v-278.639c0 0 0-36.929 36.985-36.929 36.957 0 39.608 34.277 39.608 34.277v145.287l-50.188 87.116v48.862h87.144v-102.972h106.976l95.072-194.063h804.129l126.753 194.063h45.56v-118.853h172.312v526.899h-172.312zM998.709 192.52c-10.862-18.084-30.582-29.368-51.683-29.368h-358.31c-21.016 0-40.822 11.279-51.598 29.368-10.833 18.084-11.37 40.766-1.411 59.357l179.197 333.088c10.524 19.495 30.862 31.626 53.009 31.626s42.486-12.131 52.953-31.626l179.197-333.088c9.929-18.506 9.395-41.272-1.353-59.357z" horiz-adv-x="1493" />
<glyph unicode="&#xe630;" d="M0.195-64l-0.13 511.903-0.065 512.097 511.838-511.903z" horiz-adv-x="512" />
<glyph unicode="&#xe631;" d="M895.215 645.937c-110.629 31.649-220.115-5.473-310.993-68.295-0.262 0-0.5-0.238-0.976-0.476-1.904 1.19-3.807 2.142-5.949 3.094 5.711 20.227 15.468 38.788 36.194 58.539 54.493 51.876 139.446 154.2 95.899 234.631-73.054 135.163-353.136 105.179-395.256-42.119-31.649-110.653 5.473-220.115 68.057-311.017 0.476-0.714 0.952-1.666 1.428-2.38-0.952-1.428-1.666-3.331-2.38-4.997-20.703 5.711-39.978 15.23-60.204 36.646-51.638 54.493-154.2 139.446-234.631 95.899-134.925-73.054-104.941-353.374 42.357-395.256 110.653-31.649 220.115 5.449 311.017 68.057 1.904 1.428 4.283 2.832 6.663 4.283 0.476-0.238 0.952-0.476 1.666-0.952-5.473-22.368-14.754-42.833-37.598-64.488-54.493-51.876-139.446-154.2-95.899-234.631 72.817-135.163 353.136-104.918 395.256 42.357 31.649 110.653-5.473 220.115-68.033 311.017-1.214 1.428-2.403 3.331-3.569 5.235 0.69 0.714 1.19 1.642 1.666 2.618 21.655-5.473 41.643-15.015 62.822-37.146 51.876-54.731 154.414-139.422 234.631-96.137 135.115 73.102 105.156 353.398-42.167 395.517zM512.095 336.11c-63.774 0-115.174 51.638-115.174 115.15 0 63.536 51.4 115.174 115.174 115.174 63.512 0 114.936-51.638 114.936-115.174 0-63.512-51.424-115.15-114.936-115.15z" />
<glyph unicode="&#xe632;" d="M916.469 43.552l0.062 0.042 22.466-22.487c8.75 8.75 16.897 18.040 24.254 27.641s14.132 19.723 20.056 30.052c5.902 10.121 11.285 20.949 16.065 32.338 4.676 11.16 8.625 22.529 11.68 33.523 3.492 11.576 6.214 23.215 8.147 34.479 1.995 11.348 3.388 22.882 4.157 35.331 0.686 12.241 0.852 24.129 0.416 35.31-0.436 11.431-1.538 23.319-3.201 35.31-1.621 11.535-3.866 23.173-6.692 34.645-2.972 12.116-6.256 23.152-9.976 33.544-3.907 11.223-8.396 22.238-13.28 32.692-4.863 10.558-10.412 21.116-16.356 31.195-4.905 8.479-9.913 16.439-15.379 24.462-4.863 6.983-10.724 15.151-17.125 22.924-6.464 7.96-12.74 15.13-19.037 21.781-6.484 6.962-13.551 13.779-20.741 20.305-1.58 1.351-3.034 2.66-4.759 4.219-1.392 1.205-2.868 2.473-4.032 3.45l-518.723 408.698c-5.383 4.281-10.849 8.085-16.834 11.68-5.986 3.554-11.784 6.609-17.562 9.145-5.632 2.577-11.722 4.863-18.933 7.232-6.547 1.995-12.948 3.616-18.871 4.842-5.965 1.268-12.449 2.286-19.702 3.097-6.318 0.561-12.761 0.894-19.702 0.998-6.38-0.021-12.865-0.333-19.723-0.811-6.297-0.561-12.948-1.434-19.494-2.556-6.069-0.977-12.553-2.265-19.64-3.99-6.526-1.642-12.948-3.471-19.37-5.653-6.651-2.203-12.969-4.572-19.141-7.253-6.838-2.868-12.989-5.778-18.518-8.75-5.819-2.972-11.909-6.464-18.060-10.267-5.861-3.658-11.659-7.565-17.458-11.742-5.695-4.157-11.368-8.625-16.647-13.176-5.507-4.676-10.87-9.643-15.92-14.673-5.029-5.050-9.955-10.392-14.569-15.878-4.614-5.341-9.124-10.994-13.28-16.73-4.157-5.757-8.064-11.535-11.68-17.333-3.866-6.235-7.336-12.304-10.225-17.832-3.055-5.819-5.965-11.971-8.854-18.746-2.681-6.235-5.029-12.511-7.191-19.058-2.265-6.63-4.073-12.989-5.674-19.474-1.746-7.191-3.034-13.613-3.99-19.474-1.164-6.796-2.016-13.426-2.577-20.014-0.478-6.526-0.811-13.073-0.852-19.869 0.125-6.484 0.478-12.927 1.081-19.682 0.769-6.796 1.808-13.301 3.034-19.204 1.268-6.006 2.91-12.387 4.988-19.328 2.224-6.817 4.551-12.906 7.066-18.372 2.598-5.965 5.632-11.763 9.207-17.811 3.575-5.902 7.357-11.389 11.618-16.73l408.469-518.37c1.268-1.496 2.494-2.951 3.907-4.531 1.372-1.58 2.66-3.055 3.97-4.489 4.302-4.822 8.729-9.498 13.197-13.966 2.39-2.328 4.739-4.655 7.129-6.879 6.671-6.339 13.841-12.574 21.677-18.913 7.939-6.547 16.044-12.407 23.152-17.354 7.898-5.404 15.857-10.371 24.191-15.234 10.225-6.006 20.783-11.555 31.299-16.419 10.516-4.905 21.51-9.373 32.588-13.239 10.516-3.803 21.594-7.087 33.772-10.101 11.41-2.743 23.048-4.988 34.625-6.63 11.929-1.663 23.817-2.764 35.248-3.18 11.181-0.436 23.069-0.312 35.456 0.374 12.324 0.811 23.817 2.182 35.103 4.198 11.368 1.954 22.986 4.655 34.334 8.064 11.244 3.138 22.612 7.108 33.939 11.805 11.202 4.739 22.030 10.101 32.11 15.961 10.392 5.986 20.513 12.74 30.094 20.118 9.602 7.357 18.892 15.504 27.662 24.275l-22.446 22.466zM863.43 7.307c-8.854-5.175-18.31-9.872-28.057-13.966-0.125-0.083-0.249-0.125-0.374-0.166l-23.131 41.836-15.026-5.57-15.026-5.611 9.29-44.767c-5.487-1.289-10.953-2.432-16.398-3.367-10.101-1.808-20.347-3.014-31.258-3.762-9.29-0.52-18.185-0.582-26.789-0.436l-4.51 47.552-16.024 0.894-16.003 0.852-9.29-44.808c-7.42 1.268-14.818 2.702-22.092 4.448-10.932 2.723-20.845 5.674-30.426 9.124-2.369 0.79-4.718 1.767-6.983 2.598l12.407 46.014-14.631 6.484-14.694 6.443-25.044-39.612c-2.972 1.621-5.965 3.18-8.854 4.926-7.71 4.448-14.943 8.999-21.905 13.738-6.401 4.468-13.821 9.81-20.928 15.691-1.018 0.852-1.954 1.663-2.972 2.494l26.145 36.204-22.841 22.404-36.329-27.288c-0.665 0.769-1.434 1.476-2.141 2.203-1.185 1.33-2.328 2.639-3.741 4.219l-4.78 5.632c-0.811 0.977-1.621 1.995-2.556 3.034l-33.648 42.813 33.585 35.892-9.893 12.553-9.955 12.595-42.709-24.358-44.039 55.969 33.565 35.851-9.955 12.553-9.913 12.553-42.626-24.254-43.998 55.969 33.502 35.788-9.934 12.553-9.872 12.553-42.584-24.254-44.122 56.010 33.44 35.684-9.955 12.574-9.893 12.574-42.418-24.171-44.081 56.031 33.336 35.581-9.913 12.595-9.913 12.553-42.377-24.108-44.164 56.031 33.336 35.56-9.913 12.595-9.893 12.532-37.222-21.178c-1.164 2.868-2.348 5.591-3.367 8.729-1.663 5.611-3.076 10.89-4.136 15.941-1.018 4.905-1.87 10.267-2.452 15.546-0.499 5.507-0.79 11.098-0.873 16.356 0.021 5.611 0.312 11.368 0.686 16.793 0.208 2.099 0.561 4.323 0.852 6.422l45.556-3.117 3.512 15.65 3.45 15.629-42.647 16.46c1.829 5.507 3.803 10.766 6.027 15.961 2.473 5.819 4.905 11.057 7.669 16.169 2.473 4.926 5.507 10.121 8.895 15.566 3.221 5.175 6.651 10.225 10.246 15.192 2.826 3.886 5.902 7.669 9.041 11.431l36.329-26.997 11.368 11.244 11.327 11.306-26.852 36.661c3.783 3.117 7.565 6.173 11.41 8.999 5.029 3.637 10.080 7.108 15.359 10.329 5.32 3.346 10.516 6.36 15.712 8.999 4.884 2.598 10.101 5.050 16.003 7.565 5.071 2.161 10.288 4.115 15.899 5.986l16.481-42.647 15.629 3.45 15.629 3.512-3.117 45.702c2.12 0.27 4.136 0.499 6.173 0.707 5.715 0.416 11.451 0.665 16.626 0.707 5.653-0.104 11.306-0.395 16.356-0.811 5.695-0.665 11.077-1.517 16.044-2.556 4.988-0.998 10.267-2.39 15.504-4.011 3.284-1.060 6.297-2.141 9.186-3.263l-21.323-37.43 12.574-9.893 12.574-9.955 35.56 33.315 56.010-44.122-24.108-42.377 12.553-9.893 12.553-9.955 35.601 33.357 56.093-44.102-24.233-42.439 25.147-19.869 35.643 33.419 56.052-44.102-24.233-42.543 12.532-9.934 12.553-9.913 35.768 33.481 56.010-44.060-24.275-42.605 12.553-9.955 12.615-9.955 35.768 33.565 56.010-44.060-24.378-42.688 12.595-9.955 12.574-9.893 35.851 33.585 39.529-31.112 3.346-2.577c0.956-0.873 1.974-1.704 2.951-2.515l5.882-4.988c1.33-1.185 2.639-2.286 4.011-3.575 0.748-0.686 1.413-1.413 2.161-2.099l-27.309-36.308 11.244-11.41 11.202-11.431 36.162 26.166c0.935-1.143 1.787-2.058 2.681-3.18 5.715-6.9 11.036-14.382 15.421-20.575 4.863-7.108 9.415-14.319 13.925-22.155 1.704-2.868 3.284-5.798 4.863-8.75l-39.592-24.898 12.948-29.346 45.993 12.428c0.894-2.328 1.829-4.697 2.681-7.129 3.367-9.456 6.339-19.349 9.041-30.219 1.767-7.336 3.201-14.756 4.468-22.175l-44.787-9.29 0.852-16.003 0.894-16.024 47.531-4.572c0.208-8.563 0.083-17.479-0.436-26.644-0.727-10.973-1.974-21.24-3.762-31.486-0.935-5.341-2.037-10.786-3.367-16.294l-44.767 9.311-5.611-15.005-5.57-15.047 41.857-23.111c0-0.083-0.083-0.187-0.125-0.27-4.136-9.851-8.854-19.328-14.049-28.244-5.217-9.041-11.098-17.873-17.562-26.249-1.85-2.432-3.886-4.759-5.819-7.17l-36.557 27.392-22.841-22.446 26.997-37.306c-2.369-1.954-4.739-4.032-7.149-5.861-8.334-6.401-17.188-12.304-26.311-17.541zM837.161 93.972l28.909 28.909-14.569 53.849 12.449 30.011 48.341 27.828 0.021 40.797-48.362 27.766-12.449 30.115 14.527 53.786-28.868 28.868-53.828-14.527-30.073 12.491-27.766 48.341-40.818-0.021-27.828-48.321-30.011-12.491-53.849 14.548-28.909-28.888 14.61-53.828-12.511-30.031-48.341-27.828v-40.776l48.341-27.766 12.47-30.115-14.527-53.807 28.868-28.888 53.807 14.527 30.094-12.449 27.787-48.341h40.797l27.828 48.341 30.031 12.47 53.828-14.569zM689.040 195.164l-43.748 43.727 16.003 59.834 59.855 16.024 43.727-43.769-16.024-59.772-59.814-16.044zM346.079 593.616l20.326 20.347-10.204 37.867 8.75 21.116 34.043 19.598v28.722l-34.022 19.557-8.77 21.178 10.225 37.867-20.347 20.326-37.867-10.267-21.157 8.77-19.598 34.022h-28.66l-19.598-34.043-21.116-8.708-37.908 10.204-20.326-20.305 10.246-37.867-8.75-21.178-34.063-19.578v-28.701l34.022-19.578 8.791-21.157-10.246-37.867 20.347-20.326 37.908 10.204 21.136-8.729 19.536-34.043 28.701-0.021 19.619 34.063 21.136 8.75 37.846-10.225zM241.873 664.819l-30.78 30.8 11.244 42.086 42.086 11.244 30.8-30.8-11.285-42.044-42.065-11.285z" />
<glyph unicode="&#xe633;" d="M462.318 661.535c-0.374 0.291-0.707 0.665-1.101 0.914-0.457 0.312-0.914 0.561-1.372 0.79-0.291 0.145-0.499 0.353-0.79 0.436-0.062 0.021-0.187 0.021-0.27 0.083-0.457 0.208-0.956 0.374-1.476 0.52-0.374 0.104-0.727 0.229-1.143 0.353-0.395 0.062-0.831 0.104-1.205 0.125-0.499 0.083-0.977 0.145-1.434 0.145-0.374 0-0.748-0.042-1.081-0.062-0.52-0.021-1.039-0.083-1.538-0.145-0.374-0.062-0.748-0.187-1.122-0.291-0.478-0.145-0.935-0.27-1.413-0.416-0.374-0.145-0.665-0.333-0.998-0.52-0.457-0.187-0.935-0.416-1.351-0.686-0.312-0.208-0.603-0.436-0.873-0.665-0.436-0.312-0.873-0.686-1.33-1.060-0.042-0.062-0.083-0.104-0.166-0.125l-75.775-75.775 49.484 108.861c0.021 0.083 0.021 0.145 0.062 0.229 0.249 0.52 0.395 1.060 0.561 1.559 0.083 0.333 0.249 0.707 0.291 1.039 0.104 0.478 0.125 0.935 0.187 1.372 0.021 0.436 0.104 0.852 0.104 1.309 0 0.416-0.021 0.811-0.062 1.226-0.021 0.499-0.021 0.894-0.145 1.392-0.062 0.416-0.208 0.811-0.333 1.268-0.125 0.395-0.208 0.831-0.353 1.268-0.187 0.395-0.374 0.748-0.582 1.122-0.187 0.416-0.416 0.831-0.644 1.226-0.229 0.333-0.478 0.644-0.707 0.935-0.291 0.416-0.603 0.811-0.956 1.205-0.062 0.083-0.083 0.145-0.187 0.229-0.229 0.208-0.499 0.374-0.769 0.582-0.353 0.333-0.707 0.665-1.122 0.935-0.457 0.291-0.914 0.561-1.309 0.79-0.312 0.145-0.561 0.333-0.811 0.436-0.062 0.042-0.187 0.042-0.27 0.083-0.478 0.229-0.998 0.374-1.496 0.52-0.353 0.125-0.707 0.249-1.101 0.333-0.416 0.104-0.894 0.104-1.309 0.166-0.436 0.062-0.873 0.145-1.351 0.145-0.416 0-0.811-0.042-1.226-0.083-0.478-0.062-0.914-0.062-1.372-0.145-0.436-0.083-0.894-0.229-1.309-0.395-0.416-0.104-0.811-0.187-1.185-0.333-0.395-0.125-0.811-0.416-1.226-0.603-0.353-0.187-0.79-0.374-1.164-0.603-0.333-0.229-0.644-0.478-0.956-0.748-0.416-0.291-0.79-0.582-1.164-0.956-0.083-0.083-0.145-0.104-0.229-0.145l-129.229-129.25c-5.341-5.341-5.341-14.049 0-19.391 5.341-5.32 14.029-5.32 19.411 0l75.754 75.796-49.464-108.903c-0.042-0.042-0.042-0.166-0.042-0.229-0.249-0.478-0.416-1.018-0.54-1.538-0.083-0.374-0.27-0.707-0.333-1.039-0.083-0.478-0.104-0.894-0.166-1.392-0.062-0.436-0.083-0.852-0.083-1.289-0.042-0.416 0.021-0.831 0.083-1.226 0-0.457 0.062-0.956 0.083-1.392 0.083-0.436 0.229-0.852 0.374-1.268 0.125-0.416 0.187-0.873 0.395-1.247 0.104-0.416 0.353-0.769 0.54-1.185 0.208-0.416 0.436-0.811 0.644-1.205 0.229-0.333 0.457-0.603 0.707-0.894 0.312-0.436 0.582-0.894 0.977-1.289 0.083-0.021 0.125-0.104 0.145-0.187 0.27-0.229 0.52-0.416 0.748-0.603 0.416-0.333 0.748-0.665 1.164-0.935 0.457-0.312 0.894-0.561 1.351-0.811 0.291-0.104 0.499-0.312 0.769-0.436 0.062 0 0.083 0 0.187-0.042 1.143-0.478 2.369-0.811 3.575-0.956 0.27-0.021 0.561-0.083 0.852-0.104 1.143-0.062 2.328-0.062 3.492 0.145h0.145c1.205 0.229 2.307 0.665 3.388 1.205 0.249 0.125 0.52 0.27 0.769 0.416 1.039 0.561 2.058 1.268 2.972 2.141l75.775 75.775-49.484-108.882c-0.021-0.083-0.021-0.145-0.083-0.187-0.229-0.54-0.353-1.039-0.52-1.559-0.104-0.353-0.229-0.707-0.353-1.081-0.062-0.457-0.083-0.914-0.145-1.351 0-0.436-0.104-0.852-0.104-1.289 0-0.416 0.062-0.811 0.104-1.247 0.021-0.478 0.021-0.935 0.125-1.372 0.021-0.436 0.187-0.852 0.353-1.268 0.083-0.416 0.208-0.873 0.353-1.247 0.166-0.436 0.395-0.79 0.582-1.205s0.395-0.811 0.603-1.205c0.208-0.353 0.457-0.582 0.707-0.935 0.333-0.416 0.623-0.852 0.977-1.226 0.083-0.042 0.125-0.125 0.145-0.229 0.249-0.208 0.52-0.395 0.769-0.561 0.395-0.333 0.707-0.644 1.143-0.935 0.436-0.312 0.894-0.561 1.33-0.831 0.27-0.104 0.52-0.291 0.79-0.436 0.062 0 0.125 0 0.187-0.021 1.164-0.478 2.348-0.831 3.575-0.977 0.249-0.062 0.561-0.062 0.831-0.125 1.143-0.083 2.348-0.083 3.492 0.125 0.021 0.042 0.104 0.042 0.145 0.042 1.185 0.208 2.307 0.623 3.45 1.205 0.208 0.104 0.478 0.27 0.707 0.374 1.018 0.582 2.058 1.289 2.93 2.161l75.775 75.816-49.443-108.903c-0.042-0.083-0.042-0.166-0.083-0.249-0.249-0.499-0.374-0.998-0.52-1.496-0.104-0.395-0.229-0.727-0.312-1.060-0.104-0.478-0.125-0.935-0.187-1.372-0.021-0.457-0.145-0.914-0.145-1.309s0.083-0.811 0.125-1.247c0.021-0.457 0.021-0.914 0.125-1.372 0.104-0.436 0.229-0.852 0.353-1.268s0.208-0.852 0.395-1.289c0.145-0.374 0.374-0.748 0.561-1.143 0.187-0.436 0.416-0.831 0.644-1.205 0.187-0.333 0.436-0.644 0.707-0.956 0.291-0.416 0.582-0.852 0.956-1.226 0.083-0.062 0.104-0.104 0.208-0.187 0.208-0.249 0.478-0.436 0.707-0.603 0.395-0.333 0.727-0.665 1.143-0.977 0.457-0.312 0.873-0.499 1.351-0.769l0.79-0.457c0.062 0 0.125 0 0.166-0.021 1.164-0.499 2.369-0.811 3.595-0.977 0.249-0.083 0.561-0.083 0.831-0.104 1.205-0.083 2.348-0.083 3.492 0.104 0.042 0.042 0.125 0.042 0.145 0.042 1.205 0.229 2.328 0.623 3.45 1.185 0.208 0.125 0.478 0.27 0.707 0.395 1.039 0.582 2.099 1.289 2.972 2.203l75.796 75.775-49.505-108.903c-0.042-0.083-0.042-0.145-0.083-0.229-0.208-0.52-0.374-0.977-0.52-1.538-0.104-0.374-0.27-0.686-0.312-1.081-0.083-0.436-0.125-0.894-0.145-1.33-0.062-0.436-0.145-0.894-0.145-1.289 0-0.436 0.042-0.831 0.083-1.289 0.062-0.436 0.062-0.894 0.145-1.33 0.062-0.436 0.187-0.873 0.333-1.289 0.104-0.416 0.187-0.852 0.374-1.226 0.145-0.436 0.374-0.79 0.582-1.226 0.145-0.416 0.353-0.811 0.623-1.185 0.229-0.333 0.478-0.644 0.707-0.935 0.312-0.416 0.603-0.852 0.956-1.247 0.062-0.042 0.125-0.145 0.187-0.187 0.229-0.27 0.499-0.416 0.748-0.582 0.374-0.353 0.707-0.665 1.164-0.998 0.416-0.291 0.873-0.499 1.289-0.769 0.249-0.145 0.52-0.312 0.811-0.436 0.062-0.042 0.125 0 0.187-0.083 1.164-0.436 2.348-0.79 3.575-0.935 0.27-0.062 0.561-0.062 0.811-0.125 1.205-0.062 2.369-0.062 3.492 0.166h0.208c1.164 0.249 2.328 0.623 3.408 1.205 0.208 0.083 0.478 0.27 0.769 0.374 0.977 0.603 2.037 1.309 2.951 2.203l75.775 75.775-49.484-108.861c-0.042-0.104-0.042-0.187-0.083-0.27-0.229-0.478-0.333-1.018-0.52-1.538-0.104-0.374-0.229-0.686-0.333-1.081-0.083-0.436-0.125-0.894-0.166-1.33-0.021-0.436-0.104-0.894-0.104-1.289s0.021-0.831 0.062-1.289c0.021-0.416 0.021-0.894 0.166-1.33 0.021-0.436 0.145-0.852 0.312-1.268 0.125-0.436 0.229-0.873 0.374-1.289 0.166-0.436 0.395-0.79 0.582-1.164 0.208-0.416 0.353-0.831 0.623-1.205 0.208-0.353 0.478-0.623 0.727-0.935 0.27-0.416 0.582-0.852 0.956-1.247 0.083-0.062 0.104-0.145 0.187-0.187 0.208-0.27 0.499-0.416 0.769-0.644 0.312-0.291 0.707-0.623 1.143-0.914 0.395-0.312 0.873-0.52 1.309-0.79 0.291-0.145 0.478-0.312 0.79-0.436 0.083 0 0.145 0 0.187-0.062 1.164-0.436 2.348-0.748 3.575-0.977 0.333-0.042 0.561-0.083 0.873-0.083 1.164-0.104 2.307-0.083 3.45 0.125 0.083 0.021 0.145 0.021 0.166 0.021 1.185 0.229 2.307 0.665 3.45 1.205 0.229 0.125 0.478 0.27 0.748 0.374 1.018 0.603 2.078 1.309 2.951 2.203l129.25 129.229c5.32 5.383 5.32 14.049 0 19.37-5.362 5.383-14.049 5.383-19.391 0l-75.775-75.775 49.464 108.903c0.062 0.083 0.062 0.166 0.104 0.229 0.208 0.52 0.353 1.039 0.478 1.58 0.125 0.312 0.291 0.707 0.312 1.039 0.125 0.478 0.145 0.873 0.208 1.33 0.021 0.499 0.145 0.894 0.145 1.309 0 0.436-0.083 0.873-0.125 1.268-0.021 0.499-0.021 0.894-0.104 1.351-0.104 0.436-0.229 0.852-0.374 1.268-0.125 0.436-0.208 0.873-0.353 1.289-0.187 0.395-0.374 0.769-0.561 1.122-0.208 0.416-0.416 0.831-0.644 1.205-0.208 0.333-0.478 0.623-0.727 0.956-0.291 0.374-0.623 0.831-0.977 1.205-0.083 0.062-0.104 0.125-0.166 0.187-0.27 0.249-0.499 0.416-0.769 0.623-0.333 0.312-0.727 0.644-1.122 0.935-0.457 0.291-0.894 0.561-1.351 0.79-0.249 0.166-0.478 0.312-0.769 0.457-0.083 0.062-0.145 0.062-0.249 0.062-0.52 0.208-1.018 0.374-1.496 0.52-0.416 0.104-0.748 0.229-1.101 0.353-0.457 0.104-0.894 0.104-1.33 0.145-0.436 0.021-0.894 0.104-1.33 0.125-0.416 0-0.811-0.062-1.226-0.104-0.499-0.021-0.894-0.021-1.372-0.104-0.436-0.104-0.873-0.27-1.33-0.395-0.416-0.104-0.769-0.187-1.205-0.333-0.395-0.187-0.831-0.395-1.205-0.582-0.395-0.229-0.79-0.374-1.185-0.603-0.333-0.229-0.623-0.52-0.935-0.748-0.436-0.312-0.811-0.603-1.226-0.977-0.042-0.062-0.125-0.125-0.166-0.166l-75.775-75.796 49.464 108.903c0.021 0.042 0.021 0.145 0.083 0.229 0.208 0.52 0.374 1.039 0.499 1.538 0.083 0.416 0.27 0.748 0.333 1.081 0.125 0.436 0.125 0.935 0.145 1.372 0.062 0.416 0.166 0.873 0.145 1.289 0.021 0.436-0.062 0.873-0.083 1.268 0 0.457-0.083 0.894-0.125 1.372-0.083 0.416-0.208 0.831-0.374 1.289-0.104 0.416-0.187 0.811-0.395 1.226-0.125 0.416-0.333 0.79-0.561 1.164-0.166 0.416-0.395 0.831-0.603 1.247-0.208 0.333-0.478 0.623-0.727 0.935-0.291 0.395-0.603 0.811-0.956 1.185-0.083 0.083-0.125 0.145-0.208 0.208-0.229 0.249-0.499 0.395-0.727 0.623-0.333 0.333-0.707 0.623-1.122 0.935-0.436 0.291-0.894 0.52-1.372 0.769-0.291 0.145-0.499 0.312-0.769 0.457-0.042 0.062-0.125 0.062-0.249 0.062-0.478 0.229-0.977 0.395-1.496 0.52-0.395 0.125-0.727 0.229-1.122 0.333-0.416 0.083-0.873 0.125-1.309 0.145s-0.894 0.125-1.33 0.125c-0.416 0-0.748-0.042-1.185-0.083-0.436 0-0.935-0.021-1.413-0.104-0.416-0.083-0.831-0.208-1.268-0.333s-0.831-0.229-1.268-0.395c-0.416-0.125-0.769-0.374-1.101-0.54-0.436-0.229-0.873-0.416-1.309-0.644-0.333-0.208-0.561-0.478-0.873-0.665-0.416-0.333-0.831-0.686-1.268-1.039-0.042-0.062-0.125-0.125-0.208-0.145l-75.775-75.796 49.505 108.882c0 0.083 0.021 0.145 0.062 0.229 0.229 0.52 0.374 1.039 0.52 1.517 0.125 0.395 0.249 0.748 0.312 1.081 0.104 0.436 0.145 0.914 0.187 1.392 0.021 0.395 0.125 0.852 0.125 1.268 0 0.457-0.021 0.852-0.104 1.268 0 0.436-0.021 0.894-0.145 1.392-0.021 0.416-0.187 0.811-0.312 1.268-0.125 0.416-0.208 0.831-0.395 1.226-0.125 0.416-0.374 0.79-0.561 1.164-0.187 0.416-0.416 0.811-0.644 1.226-0.187 0.333-0.436 0.623-0.707 0.935-0.27 0.416-0.603 0.831-0.956 1.205-0.083 0.083-0.125 0.166-0.187 0.229-0.229 0.249-0.52 0.374-0.748 0.603-0.374 0.291-0.707 0.623-1.122 0.935-0.436 0.312-0.894 0.561-1.33 0.79-0.291 0.145-0.52 0.353-0.79 0.436-0.083 0.083-0.208 0.083-0.229 0.083-0.52 0.208-0.998 0.353-1.496 0.499-0.395 0.104-0.769 0.229-1.143 0.353-0.416 0.062-0.894 0.104-1.309 0.187-0.436 0.042-0.894 0.062-1.351 0.062-0.395 0-0.811-0.021-1.268-0.021-0.436-0.062-0.873-0.062-1.351-0.145-0.436-0.062-0.852-0.229-1.289-0.374-0.416-0.125-0.769-0.208-1.205-0.353-0.395-0.187-0.811-0.416-1.226-0.603-0.374-0.187-0.811-0.374-1.122-0.603-0.374-0.229-0.665-0.52-0.998-0.748-0.416-0.291-0.769-0.603-1.164-0.956-0.083-0.083-0.145-0.104-0.208-0.145l-75.796-75.796 49.526 108.903c0.021 0.062 0.021 0.125 0.062 0.208 0.208 0.52 0.374 1.039 0.52 1.538 0.125 0.374 0.249 0.707 0.291 1.081 0.104 0.478 0.145 0.935 0.187 1.372 0.042 0.416 0.125 0.873 0.125 1.309 0.042 0.416-0.042 0.831-0.083 1.247-0.042 0.436-0.083 0.914-0.145 1.372-0.083 0.395-0.187 0.811-0.353 1.268-0.104 0.416-0.187 0.831-0.333 1.226-0.187 0.436-0.416 0.79-0.603 1.164-0.208 0.416-0.395 0.811-0.623 1.226-0.187 0.353-0.436 0.603-0.707 0.914-0.333 0.395-0.603 0.831-0.935 1.205-0.083 0.083-0.145 0.145-0.229 0.229-0.27 0.249-0.52 0.374-0.79 0.623zM396 752.17l-172.832-172.811-82.405 43.603 211.654 211.613zM697.624 440.861l-163.126-163.147 72.408-42.522 21.386 21.386 188.19-188.19 90.448 90.489-188.169 188.211 21.386 21.365zM316.068 764.827l-105.557-105.536-64.614 90.448 79.703 79.724z" />
<glyph unicode="&#xe634;" d="M610.721 349.652h2.238c30.559 0 55.264 30.215 55.264 67.517 0 0.316-0.057 0.603-0.057 0.832v520.823h-112.624v-520.823c0-0.316-0.086-0.545-0.086-0.832 0-37.302 24.763-67.517 55.264-67.517zM672.672 259.381c0-33.596-27.235-60.831-60.831-60.831s-60.831 27.235-60.831 60.831c0 33.596 27.235 60.831 60.831 60.831s60.831-27.235 60.831-60.831zM1223.738 437.082c0 83.413-25.825 215.29-148.95 369.807l-3.013 3.73c-4.763 6.112-7.747 21.32-7.833 28.952v60.774c0 32.941-26.743 59.655-59.683 59.655s-59.626-26.714-59.626-59.655v-60.716c0-10.072 1.578-62.266 33.4-102.782l3.472-4.304c101.605-127.544 122.953-231.043 122.953-295.433 0-140.084-82.782-276.322-128.233-335.288h-728.682c-45.394 58.966-128.233 195.205-128.233 335.288 0 64.389 21.348 167.917 123.011 295.433l3.415 4.304c31.879 40.516 33.457 92.681 33.457 102.724v60.774c0 32.941-26.714 59.655-59.655 59.655s-59.655-26.714-59.655-59.655v-60.2c-0.172-8.178-3.070-23.386-7.891-29.497l-2.984-3.73c-123.154-154.517-149.008-286.394-149.008-369.807 0-197.759 126.483-380.998 175.234-434.914l7.604-8.407v-57.79h137.214v46.513h43.012v-46.513h137.214v46.513h42.983v-46.513h137.186v46.513h43.041v-46.513h137.186v46.513h42.983v-46.513h137.243v57.79l7.575 8.407c48.722 53.887 175.262 237.184 175.262 434.885z" horiz-adv-x="1224" />
<glyph unicode="&#xe635;" d="M522.859 19.132c-206.292 0-374.136 167.844-374.136 374.136 0 144.629 84.691 277.703 215.728 339.013 23.215 10.828 50.814 0.852 61.663-22.342 10.87-23.194 0.852-50.794-22.321-61.684-98.595-46.118-162.315-146.209-162.315-255.008 0-155.145 126.236-281.36 281.381-281.36s281.381 126.215 281.381 281.36c0 108.778-63.658 208.89-162.274 255.008-23.215 10.87-33.232 38.49-22.363 61.684s38.49 33.19 61.684 22.342c131.058-61.31 215.707-194.404 215.707-339.013 0-206.271-167.844-374.136-374.136-374.136zM522.859 359.267c-25.584 0-46.367 20.762-46.367 46.388v408.158c0 25.605 20.783 46.388 46.367 46.388s46.367-20.783 46.367-46.388v-408.158c0.021-25.625-20.762-46.388-46.367-46.388z" />
<glyph unicode="&#xe636;" d="M1022.898 371.826c1.291 27.832-62.857 51.576-91.765 51.546-105.227-0.154-210.424-0.215-315.651-0.338l-286.528 241.822-46.843-25.634 85.725-217.002c-101.124-1.337-286.498-4.165-320.001-4.226-28.831-0.015 156.25-92.318 203.17-99.695 0 0 378.232-1.767 545.778-1.583 43.078 0 86.14 0.154 129.217 0.154 28.831 0 95.453 24.743 96.898 54.973zM-1.098 540.879l43.339-106.042 113.111 3.074-122.179 118.337zM563.302 298.423c9.153 3.085 19.091-1.886 22.198-11.103s-1.795-19.19-10.947-22.275c-9.153-3.085-19.091 1.886-22.198 11.103s1.795 19.19 10.947 22.275zM512.329 300.465c9.154 3.084 19.095-1.895 22.203-11.121s-1.792-19.206-10.946-22.29c-9.154-3.084-19.095 1.895-22.203 11.121s1.792 19.206 10.946 22.29z" />
<glyph unicode="&#xe637;" d="M191.11 258.982c0-41.259-33.447-74.706-74.706-74.706s-74.706 33.447-74.706 74.706c0 41.259 33.447 74.706 74.706 74.706s74.706-33.447 74.706-74.706zM-0.703 280.736h34.643c9.644 36.619 42.927 63.738 82.519 63.738s72.893-27.12 82.573-63.738h493.029v454.434h-692.764v-454.434zM994.89 339.289l-62.886 280.731h-211.79v-339.303h59.931c9.662 36.619 42.945 63.738 82.573 63.738 39.592 0 72.875-27.12 82.501-63.738h77.969v58.554h-28.298zM740.39 497.348v103.040l171.727-2.012 24.219-101.010h-195.946zM937.442 258.982c0-41.259-33.447-74.706-74.706-74.706s-74.706 33.447-74.706 74.706c0 41.259 33.447 74.706 74.706 74.706s74.706-33.447 74.706-74.706zM156.503 258.982c0-22.146-17.953-40.099-40.099-40.099s-40.099 17.953-40.099 40.099c0 22.146 17.953 40.099 40.099 40.099s40.099-17.953 40.099-40.099zM902.836 258.982c0-22.146-17.953-40.099-40.099-40.099s-40.099 17.953-40.099 40.099c0 22.146 17.953 40.099 40.099 40.099s40.099-17.953 40.099-40.099z" />
</font>
</defs>
</svg>
